<svg xmlns="http://www.w3.org/2000/svg" xmlns:xlink="http://www.w3.org/1999/xlink" width="1920" zoomAndPan="magnify" viewBox="0 0 1440 587.999999" height="784" preserveAspectRatio="xMidYMid meet" version="1.0"><defs><g/></defs><g fill="#ffffff" fill-opacity="1"><g transform="translate(15.885388, 230.142857)"><g><path d="M 29.21875 -41.84375 C 25.820312 -41.84375 23.171875 -40.453125 21.265625 -37.671875 C 19.367188 -34.898438 18.421875 -31.070312 18.421875 -26.1875 C 18.421875 -16.019531 22.28125 -10.9375 30 -10.9375 C 32.34375 -10.9375 34.609375 -11.257812 36.796875 -11.90625 C 38.984375 -12.5625 41.1875 -13.347656 43.40625 -14.265625 L 43.40625 -2.203125 C 39 -0.253906 34.015625 0.71875 28.453125 0.71875 C 20.484375 0.71875 14.375 -1.585938 10.125 -6.203125 C 5.875 -10.828125 3.75 -17.507812 3.75 -26.25 C 3.75 -31.71875 4.78125 -36.519531 6.84375 -40.65625 C 8.90625 -44.800781 11.863281 -47.984375 15.71875 -50.203125 C 19.582031 -52.429688 24.128906 -53.546875 29.359375 -53.546875 C 35.066406 -53.546875 40.519531 -52.304688 45.71875 -49.828125 L 41.34375 -38.59375 C 39.394531 -39.507812 37.445312 -40.28125 35.5 -40.90625 C 33.550781 -41.53125 31.457031 -41.84375 29.21875 -41.84375 Z M 29.21875 -41.84375 "/></g></g></g><g fill="#ffffff" fill-opacity="1"><g transform="translate(63.878016, 230.142857)"><g><path d="M 55.109375 -26.46875 C 55.109375 -17.582031 52.925781 -10.828125 48.5625 -6.203125 C 44.207031 -1.585938 37.828125 0.71875 29.421875 0.71875 C 21.140625 0.71875 14.789062 -1.601562 10.375 -6.25 C 5.957031 -10.894531 3.75 -17.660156 3.75 -26.546875 C 3.75 -35.328125 5.945312 -42.035156 10.34375 -46.671875 C 14.738281 -51.304688 21.125 -53.625 29.5 -53.625 C 37.90625 -53.625 44.273438 -51.320312 48.609375 -46.71875 C 52.941406 -42.125 55.109375 -35.375 55.109375 -26.46875 Z M 18.78125 -26.46875 C 18.78125 -16.257812 22.328125 -11.15625 29.421875 -11.15625 C 33.035156 -11.15625 35.710938 -12.394531 37.453125 -14.875 C 39.203125 -17.351562 40.078125 -21.21875 40.078125 -26.46875 C 40.078125 -31.738281 39.191406 -35.628906 37.421875 -38.140625 C 35.660156 -40.660156 33.019531 -41.921875 29.5 -41.921875 C 22.351562 -41.921875 18.78125 -36.769531 18.78125 -26.46875 Z M 18.78125 -26.46875 "/></g></g></g><g fill="#ffffff" fill-opacity="1"><g transform="translate(122.812523, 230.142857)"><g><path d="M 28.703125 0 L 17.90625 -38.03125 L 17.578125 -38.03125 C 18.085938 -31.550781 18.34375 -26.519531 18.34375 -22.9375 L 18.34375 0 L 5.703125 0 L 5.703125 -52.796875 L 24.703125 -52.796875 L 35.71875 -15.3125 L 36 -15.3125 L 46.796875 -52.796875 L 65.828125 -52.796875 L 65.828125 0 L 52.71875 0 L 52.71875 -23.140625 C 52.71875 -24.347656 52.734375 -25.6875 52.765625 -27.15625 C 52.804688 -28.625 52.972656 -32.222656 53.265625 -37.953125 L 52.9375 -37.953125 L 42.28125 0 Z M 28.703125 0 "/></g></g></g><g fill="#ffffff" fill-opacity="1"><g transform="translate(194.313947, 230.142857)"><g><path d="M 55.109375 -26.46875 C 55.109375 -17.582031 52.925781 -10.828125 48.5625 -6.203125 C 44.207031 -1.585938 37.828125 0.71875 29.421875 0.71875 C 21.140625 0.71875 14.789062 -1.601562 10.375 -6.25 C 5.957031 -10.894531 3.75 -17.660156 3.75 -26.546875 C 3.75 -35.328125 5.945312 -42.035156 10.34375 -46.671875 C 14.738281 -51.304688 21.125 -53.625 29.5 -53.625 C 37.90625 -53.625 44.273438 -51.320312 48.609375 -46.71875 C 52.941406 -42.125 55.109375 -35.375 55.109375 -26.46875 Z M 18.78125 -26.46875 C 18.78125 -16.257812 22.328125 -11.15625 29.421875 -11.15625 C 33.035156 -11.15625 35.710938 -12.394531 37.453125 -14.875 C 39.203125 -17.351562 40.078125 -21.21875 40.078125 -26.46875 C 40.078125 -31.738281 39.191406 -35.628906 37.421875 -38.140625 C 35.660156 -40.660156 33.019531 -41.921875 29.5 -41.921875 C 22.351562 -41.921875 18.78125 -36.769531 18.78125 -26.46875 Z M 18.78125 -26.46875 "/></g></g></g><g fill="#ffffff" fill-opacity="1"><g transform="translate(253.248454, 230.142857)"><g/></g></g><g fill="#ffffff" fill-opacity="1"><g transform="translate(272.459948, 230.142857)"><g><path d="M 50.59375 -52.796875 L 50.59375 -21.015625 C 50.59375 -14.109375 48.632812 -8.757812 44.71875 -4.96875 C 40.8125 -1.175781 35.171875 0.71875 27.796875 0.71875 C 20.597656 0.71875 15.066406 -1.117188 11.203125 -4.796875 C 7.347656 -8.484375 5.421875 -13.78125 5.421875 -20.6875 L 5.421875 -52.796875 L 19.75 -52.796875 L 19.75 -21.8125 C 19.75 -18.082031 20.445312 -15.375 21.84375 -13.6875 C 23.238281 -12 25.296875 -11.15625 28.015625 -11.15625 C 30.929688 -11.15625 33.046875 -11.988281 34.359375 -13.65625 C 35.671875 -15.332031 36.328125 -18.070312 36.328125 -21.875 L 36.328125 -52.796875 Z M 50.59375 -52.796875 "/></g></g></g><g fill="#ffffff" fill-opacity="1"><g transform="translate(328.433273, 230.142857)"><g><path d="M 28.703125 0 L 17.90625 -38.03125 L 17.578125 -38.03125 C 18.085938 -31.550781 18.34375 -26.519531 18.34375 -22.9375 L 18.34375 0 L 5.703125 0 L 5.703125 -52.796875 L 24.703125 -52.796875 L 35.71875 -15.3125 L 36 -15.3125 L 46.796875 -52.796875 L 65.828125 -52.796875 L 65.828125 0 L 52.71875 0 L 52.71875 -23.140625 C 52.71875 -24.347656 52.734375 -25.6875 52.765625 -27.15625 C 52.804688 -28.625 52.972656 -32.222656 53.265625 -37.953125 L 52.9375 -37.953125 L 42.28125 0 Z M 28.703125 0 "/></g></g></g><g fill="#ffffff" fill-opacity="1"><g transform="translate(399.93472, 230.142857)"><g/></g></g><g fill="#ffffff" fill-opacity="1"><g transform="translate(419.146236, 230.142857)"><g><path d="M 29 0 L 14.734375 0 L 14.734375 -41.125 L 1.84375 -41.125 L 1.84375 -52.796875 L 41.84375 -52.796875 L 41.84375 -41.125 L 29 -41.125 Z M 29 0 "/></g></g></g><g fill="#ffffff" fill-opacity="1"><g transform="translate(462.841562, 230.142857)"><g><path d="M 55.109375 -26.46875 C 55.109375 -17.582031 52.925781 -10.828125 48.5625 -6.203125 C 44.207031 -1.585938 37.828125 0.71875 29.421875 0.71875 C 21.140625 0.71875 14.789062 -1.601562 10.375 -6.25 C 5.957031 -10.894531 3.75 -17.660156 3.75 -26.546875 C 3.75 -35.328125 5.945312 -42.035156 10.34375 -46.671875 C 14.738281 -51.304688 21.125 -53.625 29.5 -53.625 C 37.90625 -53.625 44.273438 -51.320312 48.609375 -46.71875 C 52.941406 -42.125 55.109375 -35.375 55.109375 -26.46875 Z M 18.78125 -26.46875 C 18.78125 -16.257812 22.328125 -11.15625 29.421875 -11.15625 C 33.035156 -11.15625 35.710938 -12.394531 37.453125 -14.875 C 39.203125 -17.351562 40.078125 -21.21875 40.078125 -26.46875 C 40.078125 -31.738281 39.191406 -35.628906 37.421875 -38.140625 C 35.660156 -40.660156 33.019531 -41.921875 29.5 -41.921875 C 22.351562 -41.921875 18.78125 -36.769531 18.78125 -26.46875 Z M 36.5 -56.8125 C 34.476562 -57.96875 32.0625 -59.773438 29.25 -62.234375 C 26.238281 -59.648438 23.898438 -57.84375 22.234375 -56.8125 L 12.921875 -56.8125 L 12.921875 -57.859375 C 14.578125 -59.421875 16.3125 -61.257812 18.125 -63.375 C 19.945312 -65.5 21.316406 -67.257812 22.234375 -68.65625 L 36.421875 -68.65625 C 38.691406 -65.351562 41.773438 -61.753906 45.671875 -57.859375 L 45.671875 -56.8125 Z M 36.5 -56.8125 "/></g></g></g><g fill="#ffffff" fill-opacity="1"><g transform="translate(521.776069, 230.142857)"><g><path d="M 55.96875 0 L 37.265625 0 L 17.984375 -37.1875 L 17.65625 -37.1875 C 18.113281 -31.34375 18.34375 -26.878906 18.34375 -23.796875 L 18.34375 0 L 5.703125 0 L 5.703125 -52.796875 L 24.34375 -52.796875 L 43.546875 -16.109375 L 43.765625 -16.109375 C 43.429688 -21.421875 43.265625 -25.691406 43.265625 -28.921875 L 43.265625 -52.796875 L 55.96875 -52.796875 Z M 55.96875 0 "/></g></g></g><g fill="#ffffff" fill-opacity="1"><g transform="translate(583.455097, 230.142857)"><g><path d="M 5.703125 0 L 5.703125 -52.796875 L 20.046875 -52.796875 L 20.046875 0 Z M 5.703125 0 "/></g></g></g><g fill="#ffffff" fill-opacity="1"><g transform="translate(609.202837, 230.142857)"><g><path d="M 29.21875 -41.84375 C 25.820312 -41.84375 23.171875 -40.453125 21.265625 -37.671875 C 19.367188 -34.898438 18.421875 -31.070312 18.421875 -26.1875 C 18.421875 -16.019531 22.28125 -10.9375 30 -10.9375 C 32.34375 -10.9375 34.609375 -11.257812 36.796875 -11.90625 C 38.984375 -12.5625 41.1875 -13.347656 43.40625 -14.265625 L 43.40625 -2.203125 C 39 -0.253906 34.015625 0.71875 28.453125 0.71875 C 20.484375 0.71875 14.375 -1.585938 10.125 -6.203125 C 5.875 -10.828125 3.75 -17.507812 3.75 -26.25 C 3.75 -31.71875 4.78125 -36.519531 6.84375 -40.65625 C 8.90625 -44.800781 11.863281 -47.984375 15.71875 -50.203125 C 19.582031 -52.429688 24.128906 -53.546875 29.359375 -53.546875 C 35.066406 -53.546875 40.519531 -52.304688 45.71875 -49.828125 L 41.34375 -38.59375 C 39.394531 -39.507812 37.445312 -40.28125 35.5 -40.90625 C 33.550781 -41.53125 31.457031 -41.84375 29.21875 -41.84375 Z M 29.21875 -41.84375 "/></g></g></g><g fill="#ffffff" fill-opacity="1"><g transform="translate(657.195465, 230.142857)"><g><path d="M 55.109375 -26.46875 C 55.109375 -17.582031 52.925781 -10.828125 48.5625 -6.203125 C 44.207031 -1.585938 37.828125 0.71875 29.421875 0.71875 C 21.140625 0.71875 14.789062 -1.601562 10.375 -6.25 C 5.957031 -10.894531 3.75 -17.660156 3.75 -26.546875 C 3.75 -35.328125 5.945312 -42.035156 10.34375 -46.671875 C 14.738281 -51.304688 21.125 -53.625 29.5 -53.625 C 37.90625 -53.625 44.273438 -51.320312 48.609375 -46.71875 C 52.941406 -42.125 55.109375 -35.375 55.109375 -26.46875 Z M 18.78125 -26.46875 C 18.78125 -16.257812 22.328125 -11.15625 29.421875 -11.15625 C 33.035156 -11.15625 35.710938 -12.394531 37.453125 -14.875 C 39.203125 -17.351562 40.078125 -21.21875 40.078125 -26.46875 C 40.078125 -31.738281 39.191406 -35.628906 37.421875 -38.140625 C 35.660156 -40.660156 33.019531 -41.921875 29.5 -41.921875 C 22.351562 -41.921875 18.78125 -36.769531 18.78125 -26.46875 Z M 18.78125 -26.46875 "/></g></g></g><g fill="#ffffff" fill-opacity="1"><g transform="translate(716.129972, 230.142857)"><g/></g></g><g fill="#ffffff" fill-opacity="1"><g transform="translate(735.341443, 230.142857)"><g><path d="M 29.21875 -41.84375 C 25.820312 -41.84375 23.171875 -40.453125 21.265625 -37.671875 C 19.367188 -34.898438 18.421875 -31.070312 18.421875 -26.1875 C 18.421875 -16.019531 22.28125 -10.9375 30 -10.9375 C 32.34375 -10.9375 34.609375 -11.257812 36.796875 -11.90625 C 38.984375 -12.5625 41.1875 -13.347656 43.40625 -14.265625 L 43.40625 -2.203125 C 39 -0.253906 34.015625 0.71875 28.453125 0.71875 C 20.484375 0.71875 14.375 -1.585938 10.125 -6.203125 C 5.875 -10.828125 3.75 -17.507812 3.75 -26.25 C 3.75 -31.71875 4.78125 -36.519531 6.84375 -40.65625 C 8.90625 -44.800781 11.863281 -47.984375 15.71875 -50.203125 C 19.582031 -52.429688 24.128906 -53.546875 29.359375 -53.546875 C 35.066406 -53.546875 40.519531 -52.304688 45.71875 -49.828125 L 41.34375 -38.59375 C 39.394531 -39.507812 37.445312 -40.28125 35.5 -40.90625 C 33.550781 -41.53125 31.457031 -41.84375 29.21875 -41.84375 Z M 29.21875 -41.84375 "/></g></g></g><g fill="#ffffff" fill-opacity="1"><g transform="translate(783.33407, 230.142857)"><g><path d="M 55.109375 -26.46875 C 55.109375 -17.582031 52.925781 -10.828125 48.5625 -6.203125 C 44.207031 -1.585938 37.828125 0.71875 29.421875 0.71875 C 21.140625 0.71875 14.789062 -1.601562 10.375 -6.25 C 5.957031 -10.894531 3.75 -17.660156 3.75 -26.546875 C 3.75 -35.328125 5.945312 -42.035156 10.34375 -46.671875 C 14.738281 -51.304688 21.125 -53.625 29.5 -53.625 C 37.90625 -53.625 44.273438 -51.320312 48.609375 -46.71875 C 52.941406 -42.125 55.109375 -35.375 55.109375 -26.46875 Z M 18.78125 -26.46875 C 18.78125 -16.257812 22.328125 -11.15625 29.421875 -11.15625 C 33.035156 -11.15625 35.710938 -12.394531 37.453125 -14.875 C 39.203125 -17.351562 40.078125 -21.21875 40.078125 -26.46875 C 40.078125 -31.738281 39.191406 -35.628906 37.421875 -38.140625 C 35.660156 -40.660156 33.019531 -41.921875 29.5 -41.921875 C 22.351562 -41.921875 18.78125 -36.769531 18.78125 -26.46875 Z M 18.78125 -26.46875 "/></g></g></g><g fill="#ffffff" fill-opacity="1"><g transform="translate(842.268531, 230.142857)"><g><path d="M 19.96875 -19.203125 L 19.96875 0 L 5.703125 0 L 5.703125 -52.796875 L 23 -52.796875 C 37.351562 -52.796875 44.53125 -47.59375 44.53125 -37.1875 C 44.53125 -31.070312 41.539062 -26.34375 35.5625 -23 L 50.953125 0 L 34.78125 0 L 23.578125 -19.203125 Z M 19.96875 -29.9375 L 22.640625 -29.9375 C 27.617188 -29.9375 30.109375 -32.140625 30.109375 -36.546875 C 30.109375 -40.179688 27.664062 -42 22.78125 -42 L 19.96875 -42 Z M 19.96875 -29.9375 "/></g></g></g><g fill="#ffffff" fill-opacity="1"><g transform="translate(892.319494, 230.142857)"><g><path d="M 37.046875 0 L 5.703125 0 L 5.703125 -52.796875 L 37.046875 -52.796875 L 37.046875 -41.34375 L 19.96875 -41.34375 L 19.96875 -33.046875 L 35.78125 -33.046875 L 35.78125 -21.59375 L 19.96875 -21.59375 L 19.96875 -11.625 L 37.046875 -11.625 Z M 37.046875 0 "/></g></g></g><g fill="#ffffff" fill-opacity="1"><g transform="translate(932.909214, 230.142857)"><g><path d="M 38.09375 0 L 35.5 -9.890625 L 18.34375 -9.890625 L 15.671875 0 L 0 0 L 17.21875 -53.015625 L 36.25 -53.015625 L 53.703125 0 Z M 32.53125 -21.59375 L 30.265625 -30.265625 C 29.734375 -32.191406 29.085938 -34.679688 28.328125 -37.734375 C 27.566406 -40.796875 27.066406 -42.988281 26.828125 -44.3125 C 26.609375 -43.082031 26.179688 -41.054688 25.546875 -38.234375 C 24.910156 -35.421875 23.5 -29.875 21.3125 -21.59375 Z M 32.53125 -21.59375 "/></g></g></g><g fill="#ffffff" fill-opacity="1"><g transform="translate(986.607545, 230.142857)"><g><path d="M 55.96875 0 L 37.265625 0 L 17.984375 -37.1875 L 17.65625 -37.1875 C 18.113281 -31.34375 18.34375 -26.878906 18.34375 -23.796875 L 18.34375 0 L 5.703125 0 L 5.703125 -52.796875 L 24.34375 -52.796875 L 43.546875 -16.109375 L 43.765625 -16.109375 C 43.429688 -21.421875 43.265625 -25.691406 43.265625 -28.921875 L 43.265625 -52.796875 L 55.96875 -52.796875 Z M 55.96875 0 "/></g></g></g><g fill="#ffffff" fill-opacity="1"><g transform="translate(1048.286527, 230.142857)"><g><path d="M 55.109375 -26.46875 C 55.109375 -17.582031 52.925781 -10.828125 48.5625 -6.203125 C 44.207031 -1.585938 37.828125 0.71875 29.421875 0.71875 C 21.140625 0.71875 14.789062 -1.601562 10.375 -6.25 C 5.957031 -10.894531 3.75 -17.660156 3.75 -26.546875 C 3.75 -35.328125 5.945312 -42.035156 10.34375 -46.671875 C 14.738281 -51.304688 21.125 -53.625 29.5 -53.625 C 37.90625 -53.625 44.273438 -51.320312 48.609375 -46.71875 C 52.941406 -42.125 55.109375 -35.375 55.109375 -26.46875 Z M 18.78125 -26.46875 C 18.78125 -16.257812 22.328125 -11.15625 29.421875 -11.15625 C 33.035156 -11.15625 35.710938 -12.394531 37.453125 -14.875 C 39.203125 -17.351562 40.078125 -21.21875 40.078125 -26.46875 C 40.078125 -31.738281 39.191406 -35.628906 37.421875 -38.140625 C 35.660156 -40.660156 33.019531 -41.921875 29.5 -41.921875 C 22.351562 -41.921875 18.78125 -36.769531 18.78125 -26.46875 Z M 18.78125 -26.46875 "/></g></g></g><g fill="#ffffff" fill-opacity="1"><g transform="translate(1107.221034, 230.142857)"><g/></g></g><g fill="#ff1616" fill-opacity="1"><g transform="translate(1126.424407, 230.142857)"><g><path d="M 5.703125 -52.796875 L 24.125 -52.796875 C 31.289062 -52.796875 36.613281 -51.726562 40.09375 -49.59375 C 43.570312 -47.46875 45.3125 -44.15625 45.3125 -39.65625 C 45.3125 -36.6875 44.550781 -34.15625 43.03125 -32.0625 C 41.519531 -29.96875 39.523438 -28.617188 37.046875 -28.015625 L 37.046875 -27.65625 C 40.316406 -26.789062 42.6875 -25.347656 44.15625 -23.328125 C 45.625 -21.304688 46.359375 -18.679688 46.359375 -15.453125 C 46.359375 -10.660156 44.554688 -6.882812 40.953125 -4.125 C 37.359375 -1.375 32.457031 0 26.25 0 L 5.703125 0 Z M 19.96875 -32.53125 L 24.265625 -32.53125 C 26.304688 -32.53125 27.882812 -32.953125 29 -33.796875 C 30.125 -34.640625 30.6875 -35.890625 30.6875 -37.546875 C 30.6875 -40.515625 28.453125 -42 23.984375 -42 L 19.96875 -42 Z M 19.96875 -22.09375 L 19.96875 -11.015625 L 24.984375 -11.015625 C 29.441406 -11.015625 31.671875 -12.890625 31.671875 -16.640625 C 31.671875 -18.398438 31.070312 -19.75 29.875 -20.6875 C 28.6875 -21.625 26.960938 -22.09375 24.703125 -22.09375 Z M 19.96875 -22.09375 "/></g></g></g><g fill="#ff1616" fill-opacity="1"><g transform="translate(1176.258732, 230.142857)"><g><path d="M 38.09375 0 L 35.5 -9.890625 L 18.34375 -9.890625 L 15.671875 0 L 0 0 L 17.21875 -53.015625 L 36.25 -53.015625 L 53.703125 0 Z M 32.53125 -21.59375 L 30.265625 -30.265625 C 29.734375 -32.191406 29.085938 -34.679688 28.328125 -37.734375 C 27.566406 -40.796875 27.066406 -42.988281 26.828125 -44.3125 C 26.609375 -43.082031 26.179688 -41.054688 25.546875 -38.234375 C 24.910156 -35.421875 23.5 -29.875 21.3125 -21.59375 Z M 32.53125 -21.59375 "/></g></g></g><g fill="#ff1616" fill-opacity="1"><g transform="translate(1229.95703, 230.142857)"><g><path d="M 5.703125 0 L 5.703125 -52.796875 L 20.046875 -52.796875 L 20.046875 0 Z M 5.703125 0 "/></g></g></g><g fill="#ff1616" fill-opacity="1"><g transform="translate(1255.70477, 230.142857)"><g><path d="M 53.265625 0 L 36.765625 0 L 26.46875 -16.5 L 16.28125 0 L 0.140625 0 L 17.65625 -27.015625 L 1.1875 -52.796875 L 17 -52.796875 L 26.546875 -36.46875 L 35.71875 -52.796875 L 52 -52.796875 L 35.28125 -25.890625 Z M 53.265625 0 "/></g></g></g><g fill="#ff1616" fill-opacity="1"><g transform="translate(1309.186397, 230.142857)"><g><path d="M 55.109375 -26.46875 C 55.109375 -17.582031 52.925781 -10.828125 48.5625 -6.203125 C 44.207031 -1.585938 37.828125 0.71875 29.421875 0.71875 C 21.140625 0.71875 14.789062 -1.601562 10.375 -6.25 C 5.957031 -10.894531 3.75 -17.660156 3.75 -26.546875 C 3.75 -35.328125 5.945312 -42.035156 10.34375 -46.671875 C 14.738281 -51.304688 21.125 -53.625 29.5 -53.625 C 37.90625 -53.625 44.273438 -51.320312 48.609375 -46.71875 C 52.941406 -42.125 55.109375 -35.375 55.109375 -26.46875 Z M 18.78125 -26.46875 C 18.78125 -16.257812 22.328125 -11.15625 29.421875 -11.15625 C 33.035156 -11.15625 35.710938 -12.394531 37.453125 -14.875 C 39.203125 -17.351562 40.078125 -21.21875 40.078125 -26.46875 C 40.078125 -31.738281 39.191406 -35.628906 37.421875 -38.140625 C 35.660156 -40.660156 33.019531 -41.921875 29.5 -41.921875 C 22.351562 -41.921875 18.78125 -36.769531 18.78125 -26.46875 Z M 18.78125 -26.46875 "/></g></g></g><g fill="#ff1616" fill-opacity="1"><g transform="translate(1368.120915, 230.142857)"><g><path d="M 50.59375 -52.796875 L 50.59375 -21.015625 C 50.59375 -14.109375 48.632812 -8.757812 44.71875 -4.96875 C 40.8125 -1.175781 35.171875 0.71875 27.796875 0.71875 C 20.597656 0.71875 15.066406 -1.117188 11.203125 -4.796875 C 7.347656 -8.484375 5.421875 -13.78125 5.421875 -20.6875 L 5.421875 -52.796875 L 19.75 -52.796875 L 19.75 -21.8125 C 19.75 -18.082031 20.445312 -15.375 21.84375 -13.6875 C 23.238281 -12 25.296875 -11.15625 28.015625 -11.15625 C 30.929688 -11.15625 33.046875 -11.988281 34.359375 -13.65625 C 35.671875 -15.332031 36.328125 -18.070312 36.328125 -21.875 L 36.328125 -52.796875 Z M 50.59375 -52.796875 "/></g></g></g><g fill="#ff1616" fill-opacity="1"><g transform="translate(68.643198, 323.142853)"><g><path d="M 28.703125 0 L 17.90625 -38.03125 L 17.578125 -38.03125 C 18.085938 -31.550781 18.34375 -26.519531 18.34375 -22.9375 L 18.34375 0 L 5.703125 0 L 5.703125 -52.796875 L 24.703125 -52.796875 L 35.71875 -15.3125 L 36 -15.3125 L 46.796875 -52.796875 L 65.828125 -52.796875 L 65.828125 0 L 52.71875 0 L 52.71875 -23.140625 C 52.71875 -24.347656 52.734375 -25.6875 52.765625 -27.15625 C 52.804688 -28.625 52.972656 -32.222656 53.265625 -37.953125 L 52.9375 -37.953125 L 42.28125 0 Z M 28.703125 0 "/></g></g></g><g fill="#ff1616" fill-opacity="1"><g transform="translate(140.144622, 323.142853)"><g><path d="M 37.046875 0 L 5.703125 0 L 5.703125 -52.796875 L 37.046875 -52.796875 L 37.046875 -41.34375 L 19.96875 -41.34375 L 19.96875 -33.046875 L 35.78125 -33.046875 L 35.78125 -21.59375 L 19.96875 -21.59375 L 19.96875 -11.625 L 37.046875 -11.625 Z M 37.046875 0 "/></g></g></g><g fill="#ff1616" fill-opacity="1"><g transform="translate(180.734319, 323.142853)"><g><path d="M 50.59375 -52.796875 L 50.59375 -21.015625 C 50.59375 -14.109375 48.632812 -8.757812 44.71875 -4.96875 C 40.8125 -1.175781 35.171875 0.71875 27.796875 0.71875 C 20.597656 0.71875 15.066406 -1.117188 11.203125 -4.796875 C 7.347656 -8.484375 5.421875 -13.78125 5.421875 -20.6875 L 5.421875 -52.796875 L 19.75 -52.796875 L 19.75 -21.8125 C 19.75 -18.082031 20.445312 -15.375 21.84375 -13.6875 C 23.238281 -12 25.296875 -11.15625 28.015625 -11.15625 C 30.929688 -11.15625 33.046875 -11.988281 34.359375 -13.65625 C 35.671875 -15.332031 36.328125 -18.070312 36.328125 -21.875 L 36.328125 -52.796875 Z M 50.59375 -52.796875 "/></g></g></g><g fill="#ff1616" fill-opacity="1"><g transform="translate(236.707656, 323.142853)"><g/></g></g><g fill="#ff1616" fill-opacity="1"><g transform="translate(255.91915, 323.142853)"><g><path d="M 29.21875 -41.84375 C 25.820312 -41.84375 23.171875 -40.453125 21.265625 -37.671875 C 19.367188 -34.898438 18.421875 -31.070312 18.421875 -26.1875 C 18.421875 -16.019531 22.28125 -10.9375 30 -10.9375 C 32.34375 -10.9375 34.609375 -11.257812 36.796875 -11.90625 C 38.984375 -12.5625 41.1875 -13.347656 43.40625 -14.265625 L 43.40625 -2.203125 C 39 -0.253906 34.015625 0.71875 28.453125 0.71875 C 20.484375 0.71875 14.375 -1.585938 10.125 -6.203125 C 5.875 -10.828125 3.75 -17.507812 3.75 -26.25 C 3.75 -31.71875 4.78125 -36.519531 6.84375 -40.65625 C 8.90625 -44.800781 11.863281 -47.984375 15.71875 -50.203125 C 19.582031 -52.429688 24.128906 -53.546875 29.359375 -53.546875 C 35.066406 -53.546875 40.519531 -52.304688 45.71875 -49.828125 L 41.34375 -38.59375 C 39.394531 -39.507812 37.445312 -40.28125 35.5 -40.90625 C 33.550781 -41.53125 31.457031 -41.84375 29.21875 -41.84375 Z M 29.21875 -41.84375 "/></g></g></g><g fill="#ff1616" fill-opacity="1"><g transform="translate(303.911789, 323.142853)"><g><path d="M 55.109375 -26.46875 C 55.109375 -17.582031 52.925781 -10.828125 48.5625 -6.203125 C 44.207031 -1.585938 37.828125 0.71875 29.421875 0.71875 C 21.140625 0.71875 14.789062 -1.601562 10.375 -6.25 C 5.957031 -10.894531 3.75 -17.660156 3.75 -26.546875 C 3.75 -35.328125 5.945312 -42.035156 10.34375 -46.671875 C 14.738281 -51.304688 21.125 -53.625 29.5 -53.625 C 37.90625 -53.625 44.273438 -51.320312 48.609375 -46.71875 C 52.941406 -42.125 55.109375 -35.375 55.109375 -26.46875 Z M 18.78125 -26.46875 C 18.78125 -16.257812 22.328125 -11.15625 29.421875 -11.15625 C 33.035156 -11.15625 35.710938 -12.394531 37.453125 -14.875 C 39.203125 -17.351562 40.078125 -21.21875 40.078125 -26.46875 C 40.078125 -31.738281 39.191406 -35.628906 37.421875 -38.140625 C 35.660156 -40.660156 33.019531 -41.921875 29.5 -41.921875 C 22.351562 -41.921875 18.78125 -36.769531 18.78125 -26.46875 Z M 18.78125 -26.46875 "/></g></g></g><g fill="#ff1616" fill-opacity="1"><g transform="translate(362.846296, 323.142853)"><g><path d="M 5.703125 0 L 5.703125 -52.796875 L 19.96875 -52.796875 L 19.96875 -11.515625 L 40.296875 -11.515625 L 40.296875 0 Z M 5.703125 0 "/></g></g></g><g fill="#ff1616" fill-opacity="1"><g transform="translate(405.891598, 323.142853)"><g><path d="M 37.046875 0 L 5.703125 0 L 5.703125 -52.796875 L 37.046875 -52.796875 L 37.046875 -41.34375 L 19.96875 -41.34375 L 19.96875 -33.046875 L 35.78125 -33.046875 L 35.78125 -21.59375 L 19.96875 -21.59375 L 19.96875 -11.625 L 37.046875 -11.625 Z M 37.046875 0 "/></g></g></g><g fill="#ff1616" fill-opacity="1"><g transform="translate(446.481295, 323.142853)"><g><path d="M 40.21875 -16.03125 C 40.21875 -12.757812 39.390625 -9.851562 37.734375 -7.3125 C 36.078125 -4.769531 33.679688 -2.796875 30.546875 -1.390625 C 27.421875 0.015625 23.75 0.71875 19.53125 0.71875 C 16.019531 0.71875 13.070312 0.472656 10.6875 -0.015625 C 8.300781 -0.515625 5.820312 -1.375 3.25 -2.59375 L 3.25 -15.3125 C 5.96875 -13.914062 8.796875 -12.828125 11.734375 -12.046875 C 14.671875 -11.265625 17.367188 -10.875 19.828125 -10.875 C 21.941406 -10.875 23.492188 -11.238281 24.484375 -11.96875 C 25.472656 -12.707031 25.96875 -13.65625 25.96875 -14.8125 C 25.96875 -15.53125 25.765625 -16.160156 25.359375 -16.703125 C 24.960938 -17.242188 24.328125 -17.789062 23.453125 -18.34375 C 22.578125 -18.894531 20.238281 -20.023438 16.4375 -21.734375 C 12.988281 -23.296875 10.40625 -24.8125 8.6875 -26.28125 C 6.96875 -27.75 5.691406 -29.4375 4.859375 -31.34375 C 4.023438 -33.25 3.609375 -35.5 3.609375 -38.09375 C 3.609375 -42.957031 5.378906 -46.75 8.921875 -49.46875 C 12.460938 -52.1875 17.320312 -53.546875 23.5 -53.546875 C 28.96875 -53.546875 34.539062 -52.285156 40.21875 -49.765625 L 35.859375 -38.75 C 30.921875 -41.007812 26.660156 -42.140625 23.078125 -42.140625 C 21.222656 -42.140625 19.875 -41.8125 19.03125 -41.15625 C 18.1875 -40.507812 17.765625 -39.707031 17.765625 -38.75 C 17.765625 -37.707031 18.300781 -36.773438 19.375 -35.953125 C 20.445312 -35.140625 23.351562 -33.648438 28.09375 -31.484375 C 32.644531 -29.441406 35.800781 -27.242188 37.5625 -24.890625 C 39.332031 -22.546875 40.21875 -19.59375 40.21875 -16.03125 Z M 40.21875 -16.03125 "/></g></g></g><g fill="#ff1616" fill-opacity="1"><g transform="translate(489.16549, 323.142853)"><g><path d="M 29 0 L 14.734375 0 L 14.734375 -41.125 L 1.84375 -41.125 L 1.84375 -52.796875 L 41.84375 -52.796875 L 41.84375 -41.125 L 29 -41.125 Z M 29 0 "/></g></g></g><g fill="#ff1616" fill-opacity="1"><g transform="translate(532.860815, 323.142853)"><g><path d="M 37.046875 0 L 5.703125 0 L 5.703125 -52.796875 L 37.046875 -52.796875 L 37.046875 -41.34375 L 19.96875 -41.34375 L 19.96875 -33.046875 L 35.78125 -33.046875 L 35.78125 -21.59375 L 19.96875 -21.59375 L 19.96875 -11.625 L 37.046875 -11.625 Z M 37.046875 0 "/></g></g></g><g fill="#ff1616" fill-opacity="1"><g transform="translate(573.45049, 323.142853)"><g><path d="M 19.96875 -19.203125 L 19.96875 0 L 5.703125 0 L 5.703125 -52.796875 L 23 -52.796875 C 37.351562 -52.796875 44.53125 -47.59375 44.53125 -37.1875 C 44.53125 -31.070312 41.539062 -26.34375 35.5625 -23 L 50.953125 0 L 34.78125 0 L 23.578125 -19.203125 Z M 19.96875 -29.9375 L 22.640625 -29.9375 C 27.617188 -29.9375 30.109375 -32.140625 30.109375 -36.546875 C 30.109375 -40.179688 27.664062 -42 22.78125 -42 L 19.96875 -42 Z M 19.96875 -29.9375 "/></g></g></g><g fill="#ff1616" fill-opacity="1"><g transform="translate(623.501498, 323.142853)"><g><path d="M 55.109375 -26.46875 C 55.109375 -17.582031 52.925781 -10.828125 48.5625 -6.203125 C 44.207031 -1.585938 37.828125 0.71875 29.421875 0.71875 C 21.140625 0.71875 14.789062 -1.601562 10.375 -6.25 C 5.957031 -10.894531 3.75 -17.660156 3.75 -26.546875 C 3.75 -35.328125 5.945312 -42.035156 10.34375 -46.671875 C 14.738281 -51.304688 21.125 -53.625 29.5 -53.625 C 37.90625 -53.625 44.273438 -51.320312 48.609375 -46.71875 C 52.941406 -42.125 55.109375 -35.375 55.109375 -26.46875 Z M 18.78125 -26.46875 C 18.78125 -16.257812 22.328125 -11.15625 29.421875 -11.15625 C 33.035156 -11.15625 35.710938 -12.394531 37.453125 -14.875 C 39.203125 -17.351562 40.078125 -21.21875 40.078125 -26.46875 C 40.078125 -31.738281 39.191406 -35.628906 37.421875 -38.140625 C 35.660156 -40.660156 33.019531 -41.921875 29.5 -41.921875 C 22.351562 -41.921875 18.78125 -36.769531 18.78125 -26.46875 Z M 18.78125 -26.46875 "/></g></g></g><g fill="#ff1616" fill-opacity="1"><g transform="translate(682.436005, 323.142853)"><g><path d="M 5.703125 0 L 5.703125 -52.796875 L 19.96875 -52.796875 L 19.96875 -11.515625 L 40.296875 -11.515625 L 40.296875 0 Z M 5.703125 0 "/></g></g></g><g fill="#ffffff" fill-opacity="1"><g transform="translate(725.479112, 323.142853)"><g/></g></g><g fill="#ffffff" fill-opacity="1"><g transform="translate(744.690605, 323.142853)"><g><path d="M 37.046875 0 L 5.703125 0 L 5.703125 -52.796875 L 37.046875 -52.796875 L 37.046875 -41.34375 L 19.96875 -41.34375 L 19.96875 -33.046875 L 35.78125 -33.046875 L 35.78125 -21.59375 L 19.96875 -21.59375 L 19.96875 -11.625 L 37.046875 -11.625 Z M 37.046875 0 "/></g></g></g><g fill="#ffffff" fill-opacity="1"><g transform="translate(785.280302, 323.142853)"><g><path d="M 28.703125 0 L 17.90625 -38.03125 L 17.578125 -38.03125 C 18.085938 -31.550781 18.34375 -26.519531 18.34375 -22.9375 L 18.34375 0 L 5.703125 0 L 5.703125 -52.796875 L 24.703125 -52.796875 L 35.71875 -15.3125 L 36 -15.3125 L 46.796875 -52.796875 L 65.828125 -52.796875 L 65.828125 0 L 52.71875 0 L 52.71875 -23.140625 C 52.71875 -24.347656 52.734375 -25.6875 52.765625 -27.15625 C 52.804688 -28.625 52.972656 -32.222656 53.265625 -37.953125 L 52.9375 -37.953125 L 42.28125 0 Z M 28.703125 0 "/></g></g></g><g fill="#ffffff" fill-opacity="1"><g transform="translate(856.781726, 323.142853)"><g/></g></g><g fill="#ffffff" fill-opacity="1"><g transform="translate(875.99322, 323.142853)"><g><path d="M 28.703125 0 L 17.90625 -38.03125 L 17.578125 -38.03125 C 18.085938 -31.550781 18.34375 -26.519531 18.34375 -22.9375 L 18.34375 0 L 5.703125 0 L 5.703125 -52.796875 L 24.703125 -52.796875 L 35.71875 -15.3125 L 36 -15.3125 L 46.796875 -52.796875 L 65.828125 -52.796875 L 65.828125 0 L 52.71875 0 L 52.71875 -23.140625 C 52.71875 -24.347656 52.734375 -25.6875 52.765625 -27.15625 C 52.804688 -28.625 52.972656 -32.222656 53.265625 -37.953125 L 52.9375 -37.953125 L 42.28125 0 Z M 28.703125 0 "/></g></g></g><g fill="#ffffff" fill-opacity="1"><g transform="translate(947.494644, 323.142853)"><g><path d="M 37.046875 0 L 5.703125 0 L 5.703125 -52.796875 L 37.046875 -52.796875 L 37.046875 -41.34375 L 19.96875 -41.34375 L 19.96875 -33.046875 L 35.78125 -33.046875 L 35.78125 -21.59375 L 19.96875 -21.59375 L 19.96875 -11.625 L 37.046875 -11.625 Z M 37.046875 0 "/></g></g></g><g fill="#ffffff" fill-opacity="1"><g transform="translate(988.08434, 323.142853)"><g><path d="M 55.96875 0 L 37.265625 0 L 17.984375 -37.1875 L 17.65625 -37.1875 C 18.113281 -31.34375 18.34375 -26.878906 18.34375 -23.796875 L 18.34375 0 L 5.703125 0 L 5.703125 -52.796875 L 24.34375 -52.796875 L 43.546875 -16.109375 L 43.765625 -16.109375 C 43.429688 -21.421875 43.265625 -25.691406 43.265625 -28.921875 L 43.265625 -52.796875 L 55.96875 -52.796875 Z M 55.96875 0 "/></g></g></g><g fill="#ffffff" fill-opacity="1"><g transform="translate(1049.763346, 323.142853)"><g><path d="M 55.109375 -26.46875 C 55.109375 -17.582031 52.925781 -10.828125 48.5625 -6.203125 C 44.207031 -1.585938 37.828125 0.71875 29.421875 0.71875 C 21.140625 0.71875 14.789062 -1.601562 10.375 -6.25 C 5.957031 -10.894531 3.75 -17.660156 3.75 -26.546875 C 3.75 -35.328125 5.945312 -42.035156 10.34375 -46.671875 C 14.738281 -51.304688 21.125 -53.625 29.5 -53.625 C 37.90625 -53.625 44.273438 -51.320312 48.609375 -46.71875 C 52.941406 -42.125 55.109375 -35.375 55.109375 -26.46875 Z M 18.78125 -26.46875 C 18.78125 -16.257812 22.328125 -11.15625 29.421875 -11.15625 C 33.035156 -11.15625 35.710938 -12.394531 37.453125 -14.875 C 39.203125 -17.351562 40.078125 -21.21875 40.078125 -26.46875 C 40.078125 -31.738281 39.191406 -35.628906 37.421875 -38.140625 C 35.660156 -40.660156 33.019531 -41.921875 29.5 -41.921875 C 22.351562 -41.921875 18.78125 -36.769531 18.78125 -26.46875 Z M 18.78125 -26.46875 "/></g></g></g><g fill="#ffffff" fill-opacity="1"><g transform="translate(1108.697853, 323.142853)"><g><path d="M 40.21875 -16.03125 C 40.21875 -12.757812 39.390625 -9.851562 37.734375 -7.3125 C 36.078125 -4.769531 33.679688 -2.796875 30.546875 -1.390625 C 27.421875 0.015625 23.75 0.71875 19.53125 0.71875 C 16.019531 0.71875 13.070312 0.472656 10.6875 -0.015625 C 8.300781 -0.515625 5.820312 -1.375 3.25 -2.59375 L 3.25 -15.3125 C 5.96875 -13.914062 8.796875 -12.828125 11.734375 -12.046875 C 14.671875 -11.265625 17.367188 -10.875 19.828125 -10.875 C 21.941406 -10.875 23.492188 -11.238281 24.484375 -11.96875 C 25.472656 -12.707031 25.96875 -13.65625 25.96875 -14.8125 C 25.96875 -15.53125 25.765625 -16.160156 25.359375 -16.703125 C 24.960938 -17.242188 24.328125 -17.789062 23.453125 -18.34375 C 22.578125 -18.894531 20.238281 -20.023438 16.4375 -21.734375 C 12.988281 -23.296875 10.40625 -24.8125 8.6875 -26.28125 C 6.96875 -27.75 5.691406 -29.4375 4.859375 -31.34375 C 4.023438 -33.25 3.609375 -35.5 3.609375 -38.09375 C 3.609375 -42.957031 5.378906 -46.75 8.921875 -49.46875 C 12.460938 -52.1875 17.320312 -53.546875 23.5 -53.546875 C 28.96875 -53.546875 34.539062 -52.285156 40.21875 -49.765625 L 35.859375 -38.75 C 30.921875 -41.007812 26.660156 -42.140625 23.078125 -42.140625 C 21.222656 -42.140625 19.875 -41.8125 19.03125 -41.15625 C 18.1875 -40.507812 17.765625 -39.707031 17.765625 -38.75 C 17.765625 -37.707031 18.300781 -36.773438 19.375 -35.953125 C 20.445312 -35.140625 23.351562 -33.648438 28.09375 -31.484375 C 32.644531 -29.441406 35.800781 -27.242188 37.5625 -24.890625 C 39.332031 -22.546875 40.21875 -19.59375 40.21875 -16.03125 Z M 40.21875 -16.03125 "/></g></g></g><g fill="#ffffff" fill-opacity="1"><g transform="translate(1151.382048, 323.142853)"><g/></g></g><g fill="#ffffff" fill-opacity="1"><g transform="translate(1170.593564, 323.142853)"><g><path d="M 50.515625 -27.515625 C 50.515625 -18.703125 48.085938 -11.910156 43.234375 -7.140625 C 38.390625 -2.378906 31.570312 0 22.78125 0 L 5.703125 0 L 5.703125 -52.796875 L 23.984375 -52.796875 C 32.453125 -52.796875 38.988281 -50.628906 43.59375 -46.296875 C 48.207031 -41.960938 50.515625 -35.703125 50.515625 -27.515625 Z M 35.71875 -27.015625 C 35.71875 -31.847656 34.757812 -35.429688 32.84375 -37.765625 C 30.925781 -40.109375 28.019531 -41.28125 24.125 -41.28125 L 19.96875 -41.28125 L 19.96875 -11.703125 L 23.140625 -11.703125 C 27.472656 -11.703125 30.648438 -12.957031 32.671875 -15.46875 C 34.703125 -17.988281 35.71875 -21.835938 35.71875 -27.015625 Z M 35.71875 -27.015625 "/></g></g></g><g fill="#ffffff" fill-opacity="1"><g transform="translate(1224.869639, 323.142853)"><g><path d="M 37.046875 0 L 5.703125 0 L 5.703125 -52.796875 L 37.046875 -52.796875 L 37.046875 -41.34375 L 19.96875 -41.34375 L 19.96875 -33.046875 L 35.78125 -33.046875 L 35.78125 -21.59375 L 19.96875 -21.59375 L 19.96875 -11.625 L 37.046875 -11.625 Z M 37.046875 0 "/></g></g></g><g fill="#ffffff" fill-opacity="1"><g transform="translate(1265.459313, 323.142853)"><g/></g></g><g fill="#ffffff" fill-opacity="1"><g transform="translate(1284.67083, 323.142853)"><g><path d="M 34.015625 0 L 19.53125 0 L 19.53125 -27.953125 C 19.53125 -31.347656 19.601562 -34.453125 19.75 -37.265625 C 18.863281 -36.179688 17.757812 -35.050781 16.4375 -33.875 L 10.4375 -28.921875 L 3.03125 -38.03125 L 21.15625 -52.796875 L 34.015625 -52.796875 Z M 34.015625 0 "/></g></g></g><g fill="#ffffff" fill-opacity="1"><g transform="translate(1328.005026, 323.142853)"><g><path d="M 42.21875 -10.21875 L 36.40625 -10.21875 L 36.40625 0 L 22.3125 0 L 22.3125 -10.21875 L 1.265625 -10.21875 L 1.265625 -20.6875 L 23.21875 -52.796875 L 36.40625 -52.796875 L 36.40625 -20.875 L 42.21875 -20.875 Z M 22.3125 -20.875 L 22.3125 -27.015625 C 22.3125 -28.171875 22.351562 -29.726562 22.4375 -31.6875 C 22.519531 -33.644531 22.585938 -34.675781 22.640625 -34.78125 L 22.25 -34.78125 C 21.425781 -32.925781 20.5 -31.191406 19.46875 -29.578125 L 13.609375 -20.875 Z M 22.3125 -20.875 "/></g></g></g><g fill="#ffffff" fill-opacity="1"><g transform="translate(599.725207, 416.142849)"><g><path d="M 50.515625 -27.515625 C 50.515625 -18.703125 48.085938 -11.910156 43.234375 -7.140625 C 38.390625 -2.378906 31.570312 0 22.78125 0 L 5.703125 0 L 5.703125 -52.796875 L 23.984375 -52.796875 C 32.453125 -52.796875 38.988281 -50.628906 43.59375 -46.296875 C 48.207031 -41.960938 50.515625 -35.703125 50.515625 -27.515625 Z M 35.71875 -27.015625 C 35.71875 -31.847656 34.757812 -35.429688 32.84375 -37.765625 C 30.925781 -40.109375 28.019531 -41.28125 24.125 -41.28125 L 19.96875 -41.28125 L 19.96875 -11.703125 L 23.140625 -11.703125 C 27.472656 -11.703125 30.648438 -12.957031 32.671875 -15.46875 C 34.703125 -17.988281 35.71875 -21.835938 35.71875 -27.015625 Z M 35.71875 -27.015625 "/></g></g></g><g fill="#ffffff" fill-opacity="1"><g transform="translate(654.001293, 416.142849)"><g><path d="M 5.703125 0 L 5.703125 -52.796875 L 20.046875 -52.796875 L 20.046875 0 Z M 5.703125 0 "/></g></g></g><g fill="#ffffff" fill-opacity="1"><g transform="translate(679.749034, 416.142849)"><g><path d="M 38.09375 0 L 35.5 -9.890625 L 18.34375 -9.890625 L 15.671875 0 L 0 0 L 17.21875 -53.015625 L 36.25 -53.015625 L 53.703125 0 Z M 32.53125 -21.59375 L 30.265625 -30.265625 C 29.734375 -32.191406 29.085938 -34.679688 28.328125 -37.734375 C 27.566406 -40.796875 27.066406 -42.988281 26.828125 -44.3125 C 26.609375 -43.082031 26.179688 -41.054688 25.546875 -38.234375 C 24.910156 -35.421875 23.5 -29.875 21.3125 -21.59375 Z M 32.53125 -21.59375 "/></g></g></g><g fill="#ffffff" fill-opacity="1"><g transform="translate(733.447331, 416.142849)"><g><path d="M 40.21875 -16.03125 C 40.21875 -12.757812 39.390625 -9.851562 37.734375 -7.3125 C 36.078125 -4.769531 33.679688 -2.796875 30.546875 -1.390625 C 27.421875 0.015625 23.75 0.71875 19.53125 0.71875 C 16.019531 0.71875 13.070312 0.472656 10.6875 -0.015625 C 8.300781 -0.515625 5.820312 -1.375 3.25 -2.59375 L 3.25 -15.3125 C 5.96875 -13.914062 8.796875 -12.828125 11.734375 -12.046875 C 14.671875 -11.265625 17.367188 -10.875 19.828125 -10.875 C 21.941406 -10.875 23.492188 -11.238281 24.484375 -11.96875 C 25.472656 -12.707031 25.96875 -13.65625 25.96875 -14.8125 C 25.96875 -15.53125 25.765625 -16.160156 25.359375 -16.703125 C 24.960938 -17.242188 24.328125 -17.789062 23.453125 -18.34375 C 22.578125 -18.894531 20.238281 -20.023438 16.4375 -21.734375 C 12.988281 -23.296875 10.40625 -24.8125 8.6875 -26.28125 C 6.96875 -27.75 5.691406 -29.4375 4.859375 -31.34375 C 4.023438 -33.25 3.609375 -35.5 3.609375 -38.09375 C 3.609375 -42.957031 5.378906 -46.75 8.921875 -49.46875 C 12.460938 -52.1875 17.320312 -53.546875 23.5 -53.546875 C 28.96875 -53.546875 34.539062 -52.285156 40.21875 -49.765625 L 35.859375 -38.75 C 30.921875 -41.007812 26.660156 -42.140625 23.078125 -42.140625 C 21.222656 -42.140625 19.875 -41.8125 19.03125 -41.15625 C 18.1875 -40.507812 17.765625 -39.707031 17.765625 -38.75 C 17.765625 -37.707031 18.300781 -36.773438 19.375 -35.953125 C 20.445312 -35.140625 23.351562 -33.648438 28.09375 -31.484375 C 32.644531 -29.441406 35.800781 -27.242188 37.5625 -24.890625 C 39.332031 -22.546875 40.21875 -19.59375 40.21875 -16.03125 Z M 40.21875 -16.03125 "/></g></g></g><g fill="#ffffff" fill-opacity="1"><g transform="translate(776.131515, 416.142849)"><g><path d="M 3.109375 -6 C 3.109375 -8.207031 3.765625 -9.910156 5.078125 -11.109375 C 6.390625 -12.316406 8.296875 -12.921875 10.796875 -12.921875 C 13.179688 -12.921875 15.007812 -12.316406 16.28125 -11.109375 C 17.5625 -9.910156 18.203125 -8.207031 18.203125 -6 C 18.203125 -3.832031 17.546875 -2.140625 16.234375 -0.921875 C 14.921875 0.296875 13.109375 0.90625 10.796875 0.90625 C 8.410156 0.90625 6.53125 0.304688 5.15625 -0.890625 C 3.789062 -2.097656 3.109375 -3.800781 3.109375 -6 Z M 3.109375 -6 "/></g></g></g><g fill="#ffffff" fill-opacity="1"><g transform="translate(797.50973, 416.142849)"><g><path d="M 3.109375 -6 C 3.109375 -8.207031 3.765625 -9.910156 5.078125 -11.109375 C 6.390625 -12.316406 8.296875 -12.921875 10.796875 -12.921875 C 13.179688 -12.921875 15.007812 -12.316406 16.28125 -11.109375 C 17.5625 -9.910156 18.203125 -8.207031 18.203125 -6 C 18.203125 -3.832031 17.546875 -2.140625 16.234375 -0.921875 C 14.921875 0.296875 13.109375 0.90625 10.796875 0.90625 C 8.410156 0.90625 6.53125 0.304688 5.15625 -0.890625 C 3.789062 -2.097656 3.109375 -3.800781 3.109375 -6 Z M 3.109375 -6 "/></g></g></g><g fill="#ffffff" fill-opacity="1"><g transform="translate(818.887933, 416.142849)"><g><path d="M 3.109375 -6 C 3.109375 -8.207031 3.765625 -9.910156 5.078125 -11.109375 C 6.390625 -12.316406 8.296875 -12.921875 10.796875 -12.921875 C 13.179688 -12.921875 15.007812 -12.316406 16.28125 -11.109375 C 17.5625 -9.910156 18.203125 -8.207031 18.203125 -6 C 18.203125 -3.832031 17.546875 -2.140625 16.234375 -0.921875 C 14.921875 0.296875 13.109375 0.90625 10.796875 0.90625 C 8.410156 0.90625 6.53125 0.304688 5.15625 -0.890625 C 3.789062 -2.097656 3.109375 -3.800781 3.109375 -6 Z M 3.109375 -6 "/></g></g></g></svg>