<svg xmlns="http://www.w3.org/2000/svg" xmlns:xlink="http://www.w3.org/1999/xlink" width="980" zoomAndPan="magnify" viewBox="0 0 735 299.999988" height="400" preserveAspectRatio="xMidYMid meet" version="1.0"><defs><g/></defs><g fill="#000000" fill-opacity="1"><g transform="translate(8.134182, 117.37499)"><g><path d="M 14.90625 -21.359375 C 13.175781 -21.359375 11.828125 -20.648438 10.859375 -19.234375 C 9.890625 -17.816406 9.40625 -15.859375 9.40625 -13.359375 C 9.40625 -8.171875 11.375 -5.578125 15.3125 -5.578125 C 16.507812 -5.578125 17.664062 -5.742188 18.78125 -6.078125 C 19.894531 -6.410156 21.019531 -6.8125 22.15625 -7.28125 L 22.15625 -1.125 C 19.90625 -0.125 17.363281 0.375 14.53125 0.375 C 10.457031 0.375 7.335938 -0.800781 5.171875 -3.15625 C 3.003906 -5.519531 1.921875 -8.9375 1.921875 -13.40625 C 1.921875 -16.1875 2.441406 -18.632812 3.484375 -20.75 C 4.535156 -22.863281 6.046875 -24.488281 8.015625 -25.625 C 9.992188 -26.757812 12.316406 -27.328125 14.984375 -27.328125 C 17.898438 -27.328125 20.679688 -26.695312 23.328125 -25.4375 L 21.109375 -19.703125 C 20.109375 -20.171875 19.109375 -20.5625 18.109375 -20.875 C 17.117188 -21.195312 16.050781 -21.359375 14.90625 -21.359375 Z M 14.90625 -21.359375 "/></g></g></g><g fill="#000000" fill-opacity="1"><g transform="translate(32.628598, 117.37499)"><g><path d="M 28.125 -13.515625 C 28.125 -8.972656 27.007812 -5.519531 24.78125 -3.15625 C 22.5625 -0.800781 19.304688 0.375 15.015625 0.375 C 10.796875 0.375 7.554688 -0.8125 5.296875 -3.1875 C 3.046875 -5.5625 1.921875 -9.015625 1.921875 -13.546875 C 1.921875 -18.035156 3.039062 -21.460938 5.28125 -23.828125 C 7.519531 -26.191406 10.78125 -27.375 15.0625 -27.375 C 19.351562 -27.375 22.601562 -26.195312 24.8125 -23.84375 C 27.019531 -21.5 28.125 -18.054688 28.125 -13.515625 Z M 9.578125 -13.515625 C 9.578125 -8.304688 11.390625 -5.703125 15.015625 -5.703125 C 16.859375 -5.703125 18.222656 -6.332031 19.109375 -7.59375 C 20.003906 -8.863281 20.453125 -10.835938 20.453125 -13.515625 C 20.453125 -16.203125 20 -18.1875 19.09375 -19.46875 C 18.195312 -20.757812 16.851562 -21.40625 15.0625 -21.40625 C 11.40625 -21.40625 9.578125 -18.773438 9.578125 -13.515625 Z M 9.578125 -13.515625 "/></g></g></g><g fill="#000000" fill-opacity="1"><g transform="translate(62.707515, 117.37499)"><g><path d="M 14.65625 0 L 9.140625 -19.40625 L 8.984375 -19.40625 C 9.234375 -16.101562 9.359375 -13.535156 9.359375 -11.703125 L 9.359375 0 L 2.90625 0 L 2.90625 -26.953125 L 12.609375 -26.953125 L 18.234375 -7.8125 L 18.375 -7.8125 L 23.890625 -26.953125 L 33.609375 -26.953125 L 33.609375 0 L 26.90625 0 L 26.90625 -11.8125 C 26.90625 -12.425781 26.914062 -13.109375 26.9375 -13.859375 C 26.957031 -14.609375 27.039062 -16.445312 27.1875 -19.375 L 27.015625 -19.375 L 21.578125 0 Z M 14.65625 0 "/></g></g></g><g fill="#000000" fill-opacity="1"><g transform="translate(99.200317, 117.37499)"><g><path d="M 28.125 -13.515625 C 28.125 -8.972656 27.007812 -5.519531 24.78125 -3.15625 C 22.5625 -0.800781 19.304688 0.375 15.015625 0.375 C 10.796875 0.375 7.554688 -0.8125 5.296875 -3.1875 C 3.046875 -5.5625 1.921875 -9.015625 1.921875 -13.546875 C 1.921875 -18.035156 3.039062 -21.460938 5.28125 -23.828125 C 7.519531 -26.191406 10.78125 -27.375 15.0625 -27.375 C 19.351562 -27.375 22.601562 -26.195312 24.8125 -23.84375 C 27.019531 -21.5 28.125 -18.054688 28.125 -13.515625 Z M 9.578125 -13.515625 C 9.578125 -8.304688 11.390625 -5.703125 15.015625 -5.703125 C 16.859375 -5.703125 18.222656 -6.332031 19.109375 -7.59375 C 20.003906 -8.863281 20.453125 -10.835938 20.453125 -13.515625 C 20.453125 -16.203125 20 -18.1875 19.09375 -19.46875 C 18.195312 -20.757812 16.851562 -21.40625 15.0625 -21.40625 C 11.40625 -21.40625 9.578125 -18.773438 9.578125 -13.515625 Z M 9.578125 -13.515625 "/></g></g></g><g fill="#000000" fill-opacity="1"><g transform="translate(129.279233, 117.37499)"><g/></g></g><g fill="#000000" fill-opacity="1"><g transform="translate(139.08437, 117.37499)"><g><path d="M 25.828125 -26.953125 L 25.828125 -10.734375 C 25.828125 -7.203125 24.828125 -4.46875 22.828125 -2.53125 C 20.828125 -0.59375 17.945312 0.375 14.1875 0.375 C 10.519531 0.375 7.695312 -0.5625 5.71875 -2.4375 C 3.75 -4.320312 2.765625 -7.03125 2.765625 -10.5625 L 2.765625 -26.953125 L 10.078125 -26.953125 L 10.078125 -11.140625 C 10.078125 -9.234375 10.429688 -7.847656 11.140625 -6.984375 C 11.859375 -6.128906 12.910156 -5.703125 14.296875 -5.703125 C 15.785156 -5.703125 16.863281 -6.128906 17.53125 -6.984375 C 18.207031 -7.835938 18.546875 -9.234375 18.546875 -11.171875 L 18.546875 -26.953125 Z M 25.828125 -26.953125 "/></g></g></g><g fill="#000000" fill-opacity="1"><g transform="translate(167.651968, 117.37499)"><g><path d="M 14.65625 0 L 9.140625 -19.40625 L 8.984375 -19.40625 C 9.234375 -16.101562 9.359375 -13.535156 9.359375 -11.703125 L 9.359375 0 L 2.90625 0 L 2.90625 -26.953125 L 12.609375 -26.953125 L 18.234375 -7.8125 L 18.375 -7.8125 L 23.890625 -26.953125 L 33.609375 -26.953125 L 33.609375 0 L 26.90625 0 L 26.90625 -11.8125 C 26.90625 -12.425781 26.914062 -13.109375 26.9375 -13.859375 C 26.957031 -14.609375 27.039062 -16.445312 27.1875 -19.375 L 27.015625 -19.375 L 21.578125 0 Z M 14.65625 0 "/></g></g></g><g fill="#000000" fill-opacity="1"><g transform="translate(204.144771, 117.37499)"><g/></g></g><g fill="#000000" fill-opacity="1"><g transform="translate(213.949908, 117.37499)"><g><path d="M 14.796875 0 L 7.515625 0 L 7.515625 -21 L 0.9375 -21 L 0.9375 -26.953125 L 21.359375 -26.953125 L 21.359375 -21 L 14.796875 -21 Z M 14.796875 0 "/></g></g></g><g fill="#000000" fill-opacity="1"><g transform="translate(236.251076, 117.37499)"><g><path d="M 28.125 -13.515625 C 28.125 -8.972656 27.007812 -5.519531 24.78125 -3.15625 C 22.5625 -0.800781 19.304688 0.375 15.015625 0.375 C 10.796875 0.375 7.554688 -0.8125 5.296875 -3.1875 C 3.046875 -5.5625 1.921875 -9.015625 1.921875 -13.546875 C 1.921875 -18.035156 3.039062 -21.460938 5.28125 -23.828125 C 7.519531 -26.191406 10.78125 -27.375 15.0625 -27.375 C 19.351562 -27.375 22.601562 -26.195312 24.8125 -23.84375 C 27.019531 -21.5 28.125 -18.054688 28.125 -13.515625 Z M 9.578125 -13.515625 C 9.578125 -8.304688 11.390625 -5.703125 15.015625 -5.703125 C 16.859375 -5.703125 18.222656 -6.332031 19.109375 -7.59375 C 20.003906 -8.863281 20.453125 -10.835938 20.453125 -13.515625 C 20.453125 -16.203125 20 -18.1875 19.09375 -19.46875 C 18.195312 -20.757812 16.851562 -21.40625 15.0625 -21.40625 C 11.40625 -21.40625 9.578125 -18.773438 9.578125 -13.515625 Z M 19.0625 -28.875 C 18.03125 -29.46875 16.796875 -30.390625 15.359375 -31.640625 C 13.816406 -30.328125 12.625 -29.40625 11.78125 -28.875 L 7.015625 -28.875 L 7.015625 -29.40625 C 7.867188 -30.207031 8.757812 -31.148438 9.6875 -32.234375 C 10.613281 -33.316406 11.3125 -34.210938 11.78125 -34.921875 L 19.015625 -34.921875 C 20.171875 -33.234375 21.742188 -31.394531 23.734375 -29.40625 L 23.734375 -28.875 Z M 19.0625 -28.875 "/></g></g></g><g fill="#000000" fill-opacity="1"><g transform="translate(266.329993, 117.37499)"><g><path d="M 28.578125 0 L 19.015625 0 L 9.171875 -18.984375 L 9.015625 -18.984375 C 9.242188 -15.992188 9.359375 -13.710938 9.359375 -12.140625 L 9.359375 0 L 2.90625 0 L 2.90625 -26.953125 L 12.421875 -26.953125 L 22.234375 -8.21875 L 22.34375 -8.21875 C 22.164062 -10.9375 22.078125 -13.117188 22.078125 -14.765625 L 22.078125 -26.953125 L 28.578125 -26.953125 Z M 28.578125 0 "/></g></g></g><g fill="#000000" fill-opacity="1"><g transform="translate(297.809643, 117.37499)"><g><path d="M 2.90625 0 L 2.90625 -26.953125 L 10.234375 -26.953125 L 10.234375 0 Z M 2.90625 0 "/></g></g></g><g fill="#000000" fill-opacity="1"><g transform="translate(310.950732, 117.37499)"><g><path d="M 14.90625 -21.359375 C 13.175781 -21.359375 11.828125 -20.648438 10.859375 -19.234375 C 9.890625 -17.816406 9.40625 -15.859375 9.40625 -13.359375 C 9.40625 -8.171875 11.375 -5.578125 15.3125 -5.578125 C 16.507812 -5.578125 17.664062 -5.742188 18.78125 -6.078125 C 19.894531 -6.410156 21.019531 -6.8125 22.15625 -7.28125 L 22.15625 -1.125 C 19.90625 -0.125 17.363281 0.375 14.53125 0.375 C 10.457031 0.375 7.335938 -0.800781 5.171875 -3.15625 C 3.003906 -5.519531 1.921875 -8.9375 1.921875 -13.40625 C 1.921875 -16.1875 2.441406 -18.632812 3.484375 -20.75 C 4.535156 -22.863281 6.046875 -24.488281 8.015625 -25.625 C 9.992188 -26.757812 12.316406 -27.328125 14.984375 -27.328125 C 17.898438 -27.328125 20.679688 -26.695312 23.328125 -25.4375 L 21.109375 -19.703125 C 20.109375 -20.171875 19.109375 -20.5625 18.109375 -20.875 C 17.117188 -21.195312 16.050781 -21.359375 14.90625 -21.359375 Z M 14.90625 -21.359375 "/></g></g></g><g fill="#000000" fill-opacity="1"><g transform="translate(335.445161, 117.37499)"><g><path d="M 28.125 -13.515625 C 28.125 -8.972656 27.007812 -5.519531 24.78125 -3.15625 C 22.5625 -0.800781 19.304688 0.375 15.015625 0.375 C 10.796875 0.375 7.554688 -0.8125 5.296875 -3.1875 C 3.046875 -5.5625 1.921875 -9.015625 1.921875 -13.546875 C 1.921875 -18.035156 3.039062 -21.460938 5.28125 -23.828125 C 7.519531 -26.191406 10.78125 -27.375 15.0625 -27.375 C 19.351562 -27.375 22.601562 -26.195312 24.8125 -23.84375 C 27.019531 -21.5 28.125 -18.054688 28.125 -13.515625 Z M 9.578125 -13.515625 C 9.578125 -8.304688 11.390625 -5.703125 15.015625 -5.703125 C 16.859375 -5.703125 18.222656 -6.332031 19.109375 -7.59375 C 20.003906 -8.863281 20.453125 -10.835938 20.453125 -13.515625 C 20.453125 -16.203125 20 -18.1875 19.09375 -19.46875 C 18.195312 -20.757812 16.851562 -21.40625 15.0625 -21.40625 C 11.40625 -21.40625 9.578125 -18.773438 9.578125 -13.515625 Z M 9.578125 -13.515625 "/></g></g></g><g fill="#000000" fill-opacity="1"><g transform="translate(365.524077, 117.37499)"><g/></g></g><g fill="#000000" fill-opacity="1"><g transform="translate(375.329214, 117.37499)"><g><path d="M 14.90625 -21.359375 C 13.175781 -21.359375 11.828125 -20.648438 10.859375 -19.234375 C 9.890625 -17.816406 9.40625 -15.859375 9.40625 -13.359375 C 9.40625 -8.171875 11.375 -5.578125 15.3125 -5.578125 C 16.507812 -5.578125 17.664062 -5.742188 18.78125 -6.078125 C 19.894531 -6.410156 21.019531 -6.8125 22.15625 -7.28125 L 22.15625 -1.125 C 19.90625 -0.125 17.363281 0.375 14.53125 0.375 C 10.457031 0.375 7.335938 -0.800781 5.171875 -3.15625 C 3.003906 -5.519531 1.921875 -8.9375 1.921875 -13.40625 C 1.921875 -16.1875 2.441406 -18.632812 3.484375 -20.75 C 4.535156 -22.863281 6.046875 -24.488281 8.015625 -25.625 C 9.992188 -26.757812 12.316406 -27.328125 14.984375 -27.328125 C 17.898438 -27.328125 20.679688 -26.695312 23.328125 -25.4375 L 21.109375 -19.703125 C 20.109375 -20.171875 19.109375 -20.5625 18.109375 -20.875 C 17.117188 -21.195312 16.050781 -21.359375 14.90625 -21.359375 Z M 14.90625 -21.359375 "/></g></g></g><g fill="#000000" fill-opacity="1"><g transform="translate(399.823619, 117.37499)"><g><path d="M 28.125 -13.515625 C 28.125 -8.972656 27.007812 -5.519531 24.78125 -3.15625 C 22.5625 -0.800781 19.304688 0.375 15.015625 0.375 C 10.796875 0.375 7.554688 -0.8125 5.296875 -3.1875 C 3.046875 -5.5625 1.921875 -9.015625 1.921875 -13.546875 C 1.921875 -18.035156 3.039062 -21.460938 5.28125 -23.828125 C 7.519531 -26.191406 10.78125 -27.375 15.0625 -27.375 C 19.351562 -27.375 22.601562 -26.195312 24.8125 -23.84375 C 27.019531 -21.5 28.125 -18.054688 28.125 -13.515625 Z M 9.578125 -13.515625 C 9.578125 -8.304688 11.390625 -5.703125 15.015625 -5.703125 C 16.859375 -5.703125 18.222656 -6.332031 19.109375 -7.59375 C 20.003906 -8.863281 20.453125 -10.835938 20.453125 -13.515625 C 20.453125 -16.203125 20 -18.1875 19.09375 -19.46875 C 18.195312 -20.757812 16.851562 -21.40625 15.0625 -21.40625 C 11.40625 -21.40625 9.578125 -18.773438 9.578125 -13.515625 Z M 9.578125 -13.515625 "/></g></g></g><g fill="#000000" fill-opacity="1"><g transform="translate(429.902536, 117.37499)"><g><path d="M 10.1875 -9.8125 L 10.1875 0 L 2.90625 0 L 2.90625 -26.953125 L 11.734375 -26.953125 C 19.066406 -26.953125 22.734375 -24.296875 22.734375 -18.984375 C 22.734375 -15.859375 21.207031 -13.441406 18.15625 -11.734375 L 26.015625 0 L 17.75 0 L 12.03125 -9.8125 Z M 10.1875 -15.28125 L 11.5625 -15.28125 C 14.101562 -15.28125 15.375 -16.40625 15.375 -18.65625 C 15.375 -20.507812 14.125 -21.4375 11.625 -21.4375 L 10.1875 -21.4375 Z M 10.1875 -15.28125 "/></g></g></g><g fill="#000000" fill-opacity="1"><g transform="translate(455.447486, 117.37499)"><g><path d="M 18.90625 0 L 2.90625 0 L 2.90625 -26.953125 L 18.90625 -26.953125 L 18.90625 -21.109375 L 10.1875 -21.109375 L 10.1875 -16.859375 L 18.265625 -16.859375 L 18.265625 -11.015625 L 10.1875 -11.015625 L 10.1875 -5.9375 L 18.90625 -5.9375 Z M 18.90625 0 "/></g></g></g><g fill="#000000" fill-opacity="1"><g transform="translate(476.163625, 117.37499)"><g><path d="M 19.453125 0 L 18.125 -5.046875 L 9.359375 -5.046875 L 8 0 L 0 0 L 8.796875 -27.0625 L 18.5 -27.0625 L 27.40625 0 Z M 16.609375 -11.015625 L 15.453125 -15.453125 C 15.179688 -16.429688 14.847656 -17.703125 14.453125 -19.265625 C 14.066406 -20.828125 13.816406 -21.941406 13.703125 -22.609375 C 13.585938 -21.984375 13.363281 -20.953125 13.03125 -19.515625 C 12.707031 -18.078125 11.988281 -15.242188 10.875 -11.015625 Z M 16.609375 -11.015625 "/></g></g></g><g fill="#000000" fill-opacity="1"><g transform="translate(503.570117, 117.37499)"><g><path d="M 28.578125 0 L 19.015625 0 L 9.171875 -18.984375 L 9.015625 -18.984375 C 9.242188 -15.992188 9.359375 -13.710938 9.359375 -12.140625 L 9.359375 0 L 2.90625 0 L 2.90625 -26.953125 L 12.421875 -26.953125 L 22.234375 -8.21875 L 22.34375 -8.21875 C 22.164062 -10.9375 22.078125 -13.117188 22.078125 -14.765625 L 22.078125 -26.953125 L 28.578125 -26.953125 Z M 28.578125 0 "/></g></g></g><g fill="#000000" fill-opacity="1"><g transform="translate(535.04979, 117.37499)"><g><path d="M 28.125 -13.515625 C 28.125 -8.972656 27.007812 -5.519531 24.78125 -3.15625 C 22.5625 -0.800781 19.304688 0.375 15.015625 0.375 C 10.796875 0.375 7.554688 -0.8125 5.296875 -3.1875 C 3.046875 -5.5625 1.921875 -9.015625 1.921875 -13.546875 C 1.921875 -18.035156 3.039062 -21.460938 5.28125 -23.828125 C 7.519531 -26.191406 10.78125 -27.375 15.0625 -27.375 C 19.351562 -27.375 22.601562 -26.195312 24.8125 -23.84375 C 27.019531 -21.5 28.125 -18.054688 28.125 -13.515625 Z M 9.578125 -13.515625 C 9.578125 -8.304688 11.390625 -5.703125 15.015625 -5.703125 C 16.859375 -5.703125 18.222656 -6.332031 19.109375 -7.59375 C 20.003906 -8.863281 20.453125 -10.835938 20.453125 -13.515625 C 20.453125 -16.203125 20 -18.1875 19.09375 -19.46875 C 18.195312 -20.757812 16.851562 -21.40625 15.0625 -21.40625 C 11.40625 -21.40625 9.578125 -18.773438 9.578125 -13.515625 Z M 9.578125 -13.515625 "/></g></g></g><g fill="#000000" fill-opacity="1"><g transform="translate(565.128706, 117.37499)"><g/></g></g><g fill="#ff1616" fill-opacity="1"><g transform="translate(574.923198, 117.37499)"><g><path d="M 2.90625 -26.953125 L 12.3125 -26.953125 C 15.976562 -26.953125 18.695312 -26.40625 20.46875 -25.3125 C 22.25 -24.226562 23.140625 -22.535156 23.140625 -20.234375 C 23.140625 -18.722656 22.75 -17.429688 21.96875 -16.359375 C 21.195312 -15.296875 20.175781 -14.609375 18.90625 -14.296875 L 18.90625 -14.125 C 20.582031 -13.675781 21.796875 -12.9375 22.546875 -11.90625 C 23.296875 -10.875 23.671875 -9.535156 23.671875 -7.890625 C 23.671875 -5.441406 22.75 -3.515625 20.90625 -2.109375 C 19.070312 -0.703125 16.570312 0 13.40625 0 L 2.90625 0 Z M 10.1875 -16.609375 L 12.390625 -16.609375 C 13.429688 -16.609375 14.238281 -16.820312 14.8125 -17.25 C 15.382812 -17.675781 15.671875 -18.316406 15.671875 -19.171875 C 15.671875 -20.679688 14.523438 -21.4375 12.234375 -21.4375 L 10.1875 -21.4375 Z M 10.1875 -11.28125 L 10.1875 -5.625 L 12.75 -5.625 C 15.03125 -5.625 16.171875 -6.582031 16.171875 -8.5 C 16.171875 -9.394531 15.863281 -10.082031 15.25 -10.5625 C 14.644531 -11.039062 13.765625 -11.28125 12.609375 -11.28125 Z M 10.1875 -11.28125 "/></g></g></g><g fill="#ff1616" fill-opacity="1"><g transform="translate(600.357575, 117.37499)"><g><path d="M 19.453125 0 L 18.125 -5.046875 L 9.359375 -5.046875 L 8 0 L 0 0 L 8.796875 -27.0625 L 18.5 -27.0625 L 27.40625 0 Z M 16.609375 -11.015625 L 15.453125 -15.453125 C 15.179688 -16.429688 14.847656 -17.703125 14.453125 -19.265625 C 14.066406 -20.828125 13.816406 -21.941406 13.703125 -22.609375 C 13.585938 -21.984375 13.363281 -20.953125 13.03125 -19.515625 C 12.707031 -18.078125 11.988281 -15.242188 10.875 -11.015625 Z M 16.609375 -11.015625 "/></g></g></g><g fill="#ff1616" fill-opacity="1"><g transform="translate(627.764045, 117.37499)"><g><path d="M 2.90625 0 L 2.90625 -26.953125 L 10.234375 -26.953125 L 10.234375 0 Z M 2.90625 0 "/></g></g></g><g fill="#ff1616" fill-opacity="1"><g transform="translate(640.905145, 117.37499)"><g><path d="M 27.1875 0 L 18.765625 0 L 13.515625 -8.421875 L 8.3125 0 L 0.078125 0 L 9.015625 -13.78125 L 0.609375 -26.953125 L 8.6875 -26.953125 L 13.546875 -18.609375 L 18.234375 -26.953125 L 26.546875 -26.953125 L 18.015625 -13.21875 Z M 27.1875 0 "/></g></g></g><g fill="#ff1616" fill-opacity="1"><g transform="translate(668.20103, 117.37499)"><g><path d="M 28.125 -13.515625 C 28.125 -8.972656 27.007812 -5.519531 24.78125 -3.15625 C 22.5625 -0.800781 19.304688 0.375 15.015625 0.375 C 10.796875 0.375 7.554688 -0.8125 5.296875 -3.1875 C 3.046875 -5.5625 1.921875 -9.015625 1.921875 -13.546875 C 1.921875 -18.035156 3.039062 -21.460938 5.28125 -23.828125 C 7.519531 -26.191406 10.78125 -27.375 15.0625 -27.375 C 19.351562 -27.375 22.601562 -26.195312 24.8125 -23.84375 C 27.019531 -21.5 28.125 -18.054688 28.125 -13.515625 Z M 9.578125 -13.515625 C 9.578125 -8.304688 11.390625 -5.703125 15.015625 -5.703125 C 16.859375 -5.703125 18.222656 -6.332031 19.109375 -7.59375 C 20.003906 -8.863281 20.453125 -10.835938 20.453125 -13.515625 C 20.453125 -16.203125 20 -18.1875 19.09375 -19.46875 C 18.195312 -20.757812 16.851562 -21.40625 15.0625 -21.40625 C 11.40625 -21.40625 9.578125 -18.773438 9.578125 -13.515625 Z M 9.578125 -13.515625 "/></g></g></g><g fill="#ff1616" fill-opacity="1"><g transform="translate(698.279946, 117.37499)"><g><path d="M 25.828125 -26.953125 L 25.828125 -10.734375 C 25.828125 -7.203125 24.828125 -4.46875 22.828125 -2.53125 C 20.828125 -0.59375 17.945312 0.375 14.1875 0.375 C 10.519531 0.375 7.695312 -0.5625 5.71875 -2.4375 C 3.75 -4.320312 2.765625 -7.03125 2.765625 -10.5625 L 2.765625 -26.953125 L 10.078125 -26.953125 L 10.078125 -11.140625 C 10.078125 -9.234375 10.429688 -7.847656 11.140625 -6.984375 C 11.859375 -6.128906 12.910156 -5.703125 14.296875 -5.703125 C 15.785156 -5.703125 16.863281 -6.128906 17.53125 -6.984375 C 18.207031 -7.835938 18.546875 -9.234375 18.546875 -11.171875 L 18.546875 -26.953125 Z M 25.828125 -26.953125 "/></g></g></g><g fill="#ff1616" fill-opacity="1"><g transform="translate(35.063867, 164.624987)"><g><path d="M 14.65625 0 L 9.140625 -19.40625 L 8.984375 -19.40625 C 9.234375 -16.101562 9.359375 -13.535156 9.359375 -11.703125 L 9.359375 0 L 2.90625 0 L 2.90625 -26.953125 L 12.609375 -26.953125 L 18.234375 -7.8125 L 18.375 -7.8125 L 23.890625 -26.953125 L 33.609375 -26.953125 L 33.609375 0 L 26.90625 0 L 26.90625 -11.8125 C 26.90625 -12.425781 26.914062 -13.109375 26.9375 -13.859375 C 26.957031 -14.609375 27.039062 -16.445312 27.1875 -19.375 L 27.015625 -19.375 L 21.578125 0 Z M 14.65625 0 "/></g></g></g><g fill="#ff1616" fill-opacity="1"><g transform="translate(71.556669, 164.624987)"><g><path d="M 18.90625 0 L 2.90625 0 L 2.90625 -26.953125 L 18.90625 -26.953125 L 18.90625 -21.109375 L 10.1875 -21.109375 L 10.1875 -16.859375 L 18.265625 -16.859375 L 18.265625 -11.015625 L 10.1875 -11.015625 L 10.1875 -5.9375 L 18.90625 -5.9375 Z M 18.90625 0 "/></g></g></g><g fill="#ff1616" fill-opacity="1"><g transform="translate(92.272785, 164.624987)"><g><path d="M 25.828125 -26.953125 L 25.828125 -10.734375 C 25.828125 -7.203125 24.828125 -4.46875 22.828125 -2.53125 C 20.828125 -0.59375 17.945312 0.375 14.1875 0.375 C 10.519531 0.375 7.695312 -0.5625 5.71875 -2.4375 C 3.75 -4.320312 2.765625 -7.03125 2.765625 -10.5625 L 2.765625 -26.953125 L 10.078125 -26.953125 L 10.078125 -11.140625 C 10.078125 -9.234375 10.429688 -7.847656 11.140625 -6.984375 C 11.859375 -6.128906 12.910156 -5.703125 14.296875 -5.703125 C 15.785156 -5.703125 16.863281 -6.128906 17.53125 -6.984375 C 18.207031 -7.835938 18.546875 -9.234375 18.546875 -11.171875 L 18.546875 -26.953125 Z M 25.828125 -26.953125 "/></g></g></g><g fill="#ff1616" fill-opacity="1"><g transform="translate(120.840383, 164.624987)"><g/></g></g><g fill="#ff1616" fill-opacity="1"><g transform="translate(130.64552, 164.624987)"><g><path d="M 14.90625 -21.359375 C 13.175781 -21.359375 11.828125 -20.648438 10.859375 -19.234375 C 9.890625 -17.816406 9.40625 -15.859375 9.40625 -13.359375 C 9.40625 -8.171875 11.375 -5.578125 15.3125 -5.578125 C 16.507812 -5.578125 17.664062 -5.742188 18.78125 -6.078125 C 19.894531 -6.410156 21.019531 -6.8125 22.15625 -7.28125 L 22.15625 -1.125 C 19.90625 -0.125 17.363281 0.375 14.53125 0.375 C 10.457031 0.375 7.335938 -0.800781 5.171875 -3.15625 C 3.003906 -5.519531 1.921875 -8.9375 1.921875 -13.40625 C 1.921875 -16.1875 2.441406 -18.632812 3.484375 -20.75 C 4.535156 -22.863281 6.046875 -24.488281 8.015625 -25.625 C 9.992188 -26.757812 12.316406 -27.328125 14.984375 -27.328125 C 17.898438 -27.328125 20.679688 -26.695312 23.328125 -25.4375 L 21.109375 -19.703125 C 20.109375 -20.171875 19.109375 -20.5625 18.109375 -20.875 C 17.117188 -21.195312 16.050781 -21.359375 14.90625 -21.359375 Z M 14.90625 -21.359375 "/></g></g></g><g fill="#ff1616" fill-opacity="1"><g transform="translate(155.139937, 164.624987)"><g><path d="M 28.125 -13.515625 C 28.125 -8.972656 27.007812 -5.519531 24.78125 -3.15625 C 22.5625 -0.800781 19.304688 0.375 15.015625 0.375 C 10.796875 0.375 7.554688 -0.8125 5.296875 -3.1875 C 3.046875 -5.5625 1.921875 -9.015625 1.921875 -13.546875 C 1.921875 -18.035156 3.039062 -21.460938 5.28125 -23.828125 C 7.519531 -26.191406 10.78125 -27.375 15.0625 -27.375 C 19.351562 -27.375 22.601562 -26.195312 24.8125 -23.84375 C 27.019531 -21.5 28.125 -18.054688 28.125 -13.515625 Z M 9.578125 -13.515625 C 9.578125 -8.304688 11.390625 -5.703125 15.015625 -5.703125 C 16.859375 -5.703125 18.222656 -6.332031 19.109375 -7.59375 C 20.003906 -8.863281 20.453125 -10.835938 20.453125 -13.515625 C 20.453125 -16.203125 20 -18.1875 19.09375 -19.46875 C 18.195312 -20.757812 16.851562 -21.40625 15.0625 -21.40625 C 11.40625 -21.40625 9.578125 -18.773438 9.578125 -13.515625 Z M 9.578125 -13.515625 "/></g></g></g><g fill="#ff1616" fill-opacity="1"><g transform="translate(185.218853, 164.624987)"><g><path d="M 2.90625 0 L 2.90625 -26.953125 L 10.1875 -26.953125 L 10.1875 -5.875 L 20.578125 -5.875 L 20.578125 0 Z M 2.90625 0 "/></g></g></g><g fill="#ff1616" fill-opacity="1"><g transform="translate(207.188258, 164.624987)"><g><path d="M 18.90625 0 L 2.90625 0 L 2.90625 -26.953125 L 18.90625 -26.953125 L 18.90625 -21.109375 L 10.1875 -21.109375 L 10.1875 -16.859375 L 18.265625 -16.859375 L 18.265625 -11.015625 L 10.1875 -11.015625 L 10.1875 -5.9375 L 18.90625 -5.9375 Z M 18.90625 0 "/></g></g></g><g fill="#ff1616" fill-opacity="1"><g transform="translate(227.904374, 164.624987)"><g><path d="M 20.53125 -8.1875 C 20.53125 -6.507812 20.101562 -5.019531 19.25 -3.71875 C 18.40625 -2.425781 17.1875 -1.421875 15.59375 -0.703125 C 14 0.015625 12.125 0.375 9.96875 0.375 C 8.175781 0.375 6.671875 0.25 5.453125 0 C 4.234375 -0.257812 2.96875 -0.703125 1.65625 -1.328125 L 1.65625 -7.8125 C 3.039062 -7.101562 4.484375 -6.546875 5.984375 -6.140625 C 7.484375 -5.742188 8.863281 -5.546875 10.125 -5.546875 C 11.195312 -5.546875 11.984375 -5.734375 12.484375 -6.109375 C 12.992188 -6.484375 13.25 -6.96875 13.25 -7.5625 C 13.25 -7.925781 13.144531 -8.242188 12.9375 -8.515625 C 12.738281 -8.796875 12.414062 -9.078125 11.96875 -9.359375 C 11.519531 -9.640625 10.328125 -10.21875 8.390625 -11.09375 C 6.628906 -11.894531 5.304688 -12.671875 4.421875 -13.421875 C 3.546875 -14.171875 2.894531 -15.03125 2.46875 -16 C 2.050781 -16.96875 1.84375 -18.117188 1.84375 -19.453125 C 1.84375 -21.929688 2.742188 -23.863281 4.546875 -25.25 C 6.359375 -26.632812 8.84375 -27.328125 12 -27.328125 C 14.789062 -27.328125 17.632812 -26.6875 20.53125 -25.40625 L 18.296875 -19.78125 C 15.785156 -20.9375 13.613281 -21.515625 11.78125 -21.515625 C 10.832031 -21.515625 10.140625 -21.347656 9.703125 -21.015625 C 9.273438 -20.679688 9.0625 -20.269531 9.0625 -19.78125 C 9.0625 -19.25 9.332031 -18.773438 9.875 -18.359375 C 10.425781 -17.941406 11.914062 -17.179688 14.34375 -16.078125 C 16.664062 -15.023438 18.273438 -13.898438 19.171875 -12.703125 C 20.078125 -11.503906 20.53125 -10 20.53125 -8.1875 Z M 20.53125 -8.1875 "/></g></g></g><g fill="#ff1616" fill-opacity="1"><g transform="translate(249.689459, 164.624987)"><g><path d="M 14.796875 0 L 7.515625 0 L 7.515625 -21 L 0.9375 -21 L 0.9375 -26.953125 L 21.359375 -26.953125 L 21.359375 -21 L 14.796875 -21 Z M 14.796875 0 "/></g></g></g><g fill="#ff1616" fill-opacity="1"><g transform="translate(271.990605, 164.624987)"><g><path d="M 18.90625 0 L 2.90625 0 L 2.90625 -26.953125 L 18.90625 -26.953125 L 18.90625 -21.109375 L 10.1875 -21.109375 L 10.1875 -16.859375 L 18.265625 -16.859375 L 18.265625 -11.015625 L 10.1875 -11.015625 L 10.1875 -5.9375 L 18.90625 -5.9375 Z M 18.90625 0 "/></g></g></g><g fill="#ff1616" fill-opacity="1"><g transform="translate(292.70672, 164.624987)"><g><path d="M 10.1875 -9.8125 L 10.1875 0 L 2.90625 0 L 2.90625 -26.953125 L 11.734375 -26.953125 C 19.066406 -26.953125 22.734375 -24.296875 22.734375 -18.984375 C 22.734375 -15.859375 21.207031 -13.441406 18.15625 -11.734375 L 26.015625 0 L 17.75 0 L 12.03125 -9.8125 Z M 10.1875 -15.28125 L 11.5625 -15.28125 C 14.101562 -15.28125 15.375 -16.40625 15.375 -18.65625 C 15.375 -20.507812 14.125 -21.4375 11.625 -21.4375 L 10.1875 -21.4375 Z M 10.1875 -15.28125 "/></g></g></g><g fill="#ff1616" fill-opacity="1"><g transform="translate(318.251694, 164.624987)"><g><path d="M 28.125 -13.515625 C 28.125 -8.972656 27.007812 -5.519531 24.78125 -3.15625 C 22.5625 -0.800781 19.304688 0.375 15.015625 0.375 C 10.796875 0.375 7.554688 -0.8125 5.296875 -3.1875 C 3.046875 -5.5625 1.921875 -9.015625 1.921875 -13.546875 C 1.921875 -18.035156 3.039062 -21.460938 5.28125 -23.828125 C 7.519531 -26.191406 10.78125 -27.375 15.0625 -27.375 C 19.351562 -27.375 22.601562 -26.195312 24.8125 -23.84375 C 27.019531 -21.5 28.125 -18.054688 28.125 -13.515625 Z M 9.578125 -13.515625 C 9.578125 -8.304688 11.390625 -5.703125 15.015625 -5.703125 C 16.859375 -5.703125 18.222656 -6.332031 19.109375 -7.59375 C 20.003906 -8.863281 20.453125 -10.835938 20.453125 -13.515625 C 20.453125 -16.203125 20 -18.1875 19.09375 -19.46875 C 18.195312 -20.757812 16.851562 -21.40625 15.0625 -21.40625 C 11.40625 -21.40625 9.578125 -18.773438 9.578125 -13.515625 Z M 9.578125 -13.515625 "/></g></g></g><g fill="#ff1616" fill-opacity="1"><g transform="translate(348.33061, 164.624987)"><g><path d="M 2.90625 0 L 2.90625 -26.953125 L 10.1875 -26.953125 L 10.1875 -5.875 L 20.578125 -5.875 L 20.578125 0 Z M 2.90625 0 "/></g></g></g><g fill="#ff1616" fill-opacity="1"><g transform="translate(370.300015, 164.624987)"><g/></g></g><g fill="#000000" fill-opacity="1"><g transform="translate(380.098999, 164.624987)"><g><path d="M 18.90625 0 L 2.90625 0 L 2.90625 -26.953125 L 18.90625 -26.953125 L 18.90625 -21.109375 L 10.1875 -21.109375 L 10.1875 -16.859375 L 18.265625 -16.859375 L 18.265625 -11.015625 L 10.1875 -11.015625 L 10.1875 -5.9375 L 18.90625 -5.9375 Z M 18.90625 0 "/></g></g></g><g fill="#000000" fill-opacity="1"><g transform="translate(400.815115, 164.624987)"><g><path d="M 14.65625 0 L 9.140625 -19.40625 L 8.984375 -19.40625 C 9.234375 -16.101562 9.359375 -13.535156 9.359375 -11.703125 L 9.359375 0 L 2.90625 0 L 2.90625 -26.953125 L 12.609375 -26.953125 L 18.234375 -7.8125 L 18.375 -7.8125 L 23.890625 -26.953125 L 33.609375 -26.953125 L 33.609375 0 L 26.90625 0 L 26.90625 -11.8125 C 26.90625 -12.425781 26.914062 -13.109375 26.9375 -13.859375 C 26.957031 -14.609375 27.039062 -16.445312 27.1875 -19.375 L 27.015625 -19.375 L 21.578125 0 Z M 14.65625 0 "/></g></g></g><g fill="#000000" fill-opacity="1"><g transform="translate(437.307917, 164.624987)"><g/></g></g><g fill="#000000" fill-opacity="1"><g transform="translate(447.113054, 164.624987)"><g><path d="M 14.65625 0 L 9.140625 -19.40625 L 8.984375 -19.40625 C 9.234375 -16.101562 9.359375 -13.535156 9.359375 -11.703125 L 9.359375 0 L 2.90625 0 L 2.90625 -26.953125 L 12.609375 -26.953125 L 18.234375 -7.8125 L 18.375 -7.8125 L 23.890625 -26.953125 L 33.609375 -26.953125 L 33.609375 0 L 26.90625 0 L 26.90625 -11.8125 C 26.90625 -12.425781 26.914062 -13.109375 26.9375 -13.859375 C 26.957031 -14.609375 27.039062 -16.445312 27.1875 -19.375 L 27.015625 -19.375 L 21.578125 0 Z M 14.65625 0 "/></g></g></g><g fill="#000000" fill-opacity="1"><g transform="translate(483.605856, 164.624987)"><g><path d="M 18.90625 0 L 2.90625 0 L 2.90625 -26.953125 L 18.90625 -26.953125 L 18.90625 -21.109375 L 10.1875 -21.109375 L 10.1875 -16.859375 L 18.265625 -16.859375 L 18.265625 -11.015625 L 10.1875 -11.015625 L 10.1875 -5.9375 L 18.90625 -5.9375 Z M 18.90625 0 "/></g></g></g><g fill="#000000" fill-opacity="1"><g transform="translate(504.321972, 164.624987)"><g><path d="M 28.578125 0 L 19.015625 0 L 9.171875 -18.984375 L 9.015625 -18.984375 C 9.242188 -15.992188 9.359375 -13.710938 9.359375 -12.140625 L 9.359375 0 L 2.90625 0 L 2.90625 -26.953125 L 12.421875 -26.953125 L 22.234375 -8.21875 L 22.34375 -8.21875 C 22.164062 -10.9375 22.078125 -13.117188 22.078125 -14.765625 L 22.078125 -26.953125 L 28.578125 -26.953125 Z M 28.578125 0 "/></g></g></g><g fill="#000000" fill-opacity="1"><g transform="translate(535.801622, 164.624987)"><g><path d="M 28.125 -13.515625 C 28.125 -8.972656 27.007812 -5.519531 24.78125 -3.15625 C 22.5625 -0.800781 19.304688 0.375 15.015625 0.375 C 10.796875 0.375 7.554688 -0.8125 5.296875 -3.1875 C 3.046875 -5.5625 1.921875 -9.015625 1.921875 -13.546875 C 1.921875 -18.035156 3.039062 -21.460938 5.28125 -23.828125 C 7.519531 -26.191406 10.78125 -27.375 15.0625 -27.375 C 19.351562 -27.375 22.601562 -26.195312 24.8125 -23.84375 C 27.019531 -21.5 28.125 -18.054688 28.125 -13.515625 Z M 9.578125 -13.515625 C 9.578125 -8.304688 11.390625 -5.703125 15.015625 -5.703125 C 16.859375 -5.703125 18.222656 -6.332031 19.109375 -7.59375 C 20.003906 -8.863281 20.453125 -10.835938 20.453125 -13.515625 C 20.453125 -16.203125 20 -18.1875 19.09375 -19.46875 C 18.195312 -20.757812 16.851562 -21.40625 15.0625 -21.40625 C 11.40625 -21.40625 9.578125 -18.773438 9.578125 -13.515625 Z M 9.578125 -13.515625 "/></g></g></g><g fill="#000000" fill-opacity="1"><g transform="translate(565.880538, 164.624987)"><g><path d="M 20.53125 -8.1875 C 20.53125 -6.507812 20.101562 -5.019531 19.25 -3.71875 C 18.40625 -2.425781 17.1875 -1.421875 15.59375 -0.703125 C 14 0.015625 12.125 0.375 9.96875 0.375 C 8.175781 0.375 6.671875 0.25 5.453125 0 C 4.234375 -0.257812 2.96875 -0.703125 1.65625 -1.328125 L 1.65625 -7.8125 C 3.039062 -7.101562 4.484375 -6.546875 5.984375 -6.140625 C 7.484375 -5.742188 8.863281 -5.546875 10.125 -5.546875 C 11.195312 -5.546875 11.984375 -5.734375 12.484375 -6.109375 C 12.992188 -6.484375 13.25 -6.96875 13.25 -7.5625 C 13.25 -7.925781 13.144531 -8.242188 12.9375 -8.515625 C 12.738281 -8.796875 12.414062 -9.078125 11.96875 -9.359375 C 11.519531 -9.640625 10.328125 -10.21875 8.390625 -11.09375 C 6.628906 -11.894531 5.304688 -12.671875 4.421875 -13.421875 C 3.546875 -14.171875 2.894531 -15.03125 2.46875 -16 C 2.050781 -16.96875 1.84375 -18.117188 1.84375 -19.453125 C 1.84375 -21.929688 2.742188 -23.863281 4.546875 -25.25 C 6.359375 -26.632812 8.84375 -27.328125 12 -27.328125 C 14.789062 -27.328125 17.632812 -26.6875 20.53125 -25.40625 L 18.296875 -19.78125 C 15.785156 -20.9375 13.613281 -21.515625 11.78125 -21.515625 C 10.832031 -21.515625 10.140625 -21.347656 9.703125 -21.015625 C 9.273438 -20.679688 9.0625 -20.269531 9.0625 -19.78125 C 9.0625 -19.25 9.332031 -18.773438 9.875 -18.359375 C 10.425781 -17.941406 11.914062 -17.179688 14.34375 -16.078125 C 16.664062 -15.023438 18.273438 -13.898438 19.171875 -12.703125 C 20.078125 -11.503906 20.53125 -10 20.53125 -8.1875 Z M 20.53125 -8.1875 "/></g></g></g><g fill="#000000" fill-opacity="1"><g transform="translate(587.665647, 164.624987)"><g/></g></g><g fill="#000000" fill-opacity="1"><g transform="translate(597.470784, 164.624987)"><g><path d="M 25.78125 -14.046875 C 25.78125 -9.546875 24.539062 -6.078125 22.0625 -3.640625 C 19.59375 -1.210938 16.113281 0 11.625 0 L 2.90625 0 L 2.90625 -26.953125 L 12.234375 -26.953125 C 16.566406 -26.953125 19.90625 -25.84375 22.25 -23.625 C 24.601562 -21.414062 25.78125 -18.222656 25.78125 -14.046875 Z M 18.234375 -13.78125 C 18.234375 -16.257812 17.742188 -18.09375 16.765625 -19.28125 C 15.785156 -20.46875 14.300781 -21.0625 12.3125 -21.0625 L 10.1875 -21.0625 L 10.1875 -5.96875 L 11.8125 -5.96875 C 14.03125 -5.96875 15.65625 -6.609375 16.6875 -7.890625 C 17.71875 -9.179688 18.234375 -11.144531 18.234375 -13.78125 Z M 18.234375 -13.78125 "/></g></g></g><g fill="#000000" fill-opacity="1"><g transform="translate(625.172144, 164.624987)"><g><path d="M 18.90625 0 L 2.90625 0 L 2.90625 -26.953125 L 18.90625 -26.953125 L 18.90625 -21.109375 L 10.1875 -21.109375 L 10.1875 -16.859375 L 18.265625 -16.859375 L 18.265625 -11.015625 L 10.1875 -11.015625 L 10.1875 -5.9375 L 18.90625 -5.9375 Z M 18.90625 0 "/></g></g></g><g fill="#000000" fill-opacity="1"><g transform="translate(645.88826, 164.624987)"><g/></g></g><g fill="#000000" fill-opacity="1"><g transform="translate(655.693397, 164.624987)"><g><path d="M 17.359375 0 L 9.96875 0 L 9.96875 -14.265625 C 9.96875 -15.992188 10.003906 -17.578125 10.078125 -19.015625 C 9.628906 -18.460938 9.066406 -17.890625 8.390625 -17.296875 L 5.328125 -14.765625 L 1.546875 -19.40625 L 10.796875 -26.953125 L 17.359375 -26.953125 Z M 17.359375 0 "/></g></g></g><g fill="#000000" fill-opacity="1"><g transform="translate(677.810247, 164.624987)"><g><path d="M 21.546875 -5.21875 L 18.578125 -5.21875 L 18.578125 0 L 11.390625 0 L 11.390625 -5.21875 L 0.640625 -5.21875 L 0.640625 -10.5625 L 11.859375 -26.953125 L 18.578125 -26.953125 L 18.578125 -10.65625 L 21.546875 -10.65625 Z M 11.390625 -10.65625 L 11.390625 -13.78125 C 11.390625 -14.375 11.410156 -15.171875 11.453125 -16.171875 C 11.492188 -17.171875 11.53125 -17.695312 11.5625 -17.75 L 11.359375 -17.75 C 10.941406 -16.800781 10.46875 -15.914062 9.9375 -15.09375 L 6.953125 -10.65625 Z M 11.390625 -10.65625 "/></g></g></g><g fill="#000000" fill-opacity="1"><g transform="translate(306.106817, 211.874983)"><g><path d="M 25.78125 -14.046875 C 25.78125 -9.546875 24.539062 -6.078125 22.0625 -3.640625 C 19.59375 -1.210938 16.113281 0 11.625 0 L 2.90625 0 L 2.90625 -26.953125 L 12.234375 -26.953125 C 16.566406 -26.953125 19.90625 -25.84375 22.25 -23.625 C 24.601562 -21.414062 25.78125 -18.222656 25.78125 -14.046875 Z M 18.234375 -13.78125 C 18.234375 -16.257812 17.742188 -18.09375 16.765625 -19.28125 C 15.785156 -20.46875 14.300781 -21.0625 12.3125 -21.0625 L 10.1875 -21.0625 L 10.1875 -5.96875 L 11.8125 -5.96875 C 14.03125 -5.96875 15.65625 -6.609375 16.6875 -7.890625 C 17.71875 -9.179688 18.234375 -11.144531 18.234375 -13.78125 Z M 18.234375 -13.78125 "/></g></g></g><g fill="#000000" fill-opacity="1"><g transform="translate(333.808178, 211.874983)"><g><path d="M 2.90625 0 L 2.90625 -26.953125 L 10.234375 -26.953125 L 10.234375 0 Z M 2.90625 0 "/></g></g></g><g fill="#000000" fill-opacity="1"><g transform="translate(346.949278, 211.874983)"><g><path d="M 19.453125 0 L 18.125 -5.046875 L 9.359375 -5.046875 L 8 0 L 0 0 L 8.796875 -27.0625 L 18.5 -27.0625 L 27.40625 0 Z M 16.609375 -11.015625 L 15.453125 -15.453125 C 15.179688 -16.429688 14.847656 -17.703125 14.453125 -19.265625 C 14.066406 -20.828125 13.816406 -21.941406 13.703125 -22.609375 C 13.585938 -21.984375 13.363281 -20.953125 13.03125 -19.515625 C 12.707031 -18.078125 11.988281 -15.242188 10.875 -11.015625 Z M 16.609375 -11.015625 "/></g></g></g><g fill="#000000" fill-opacity="1"><g transform="translate(374.355747, 211.874983)"><g><path d="M 20.53125 -8.1875 C 20.53125 -6.507812 20.101562 -5.019531 19.25 -3.71875 C 18.40625 -2.425781 17.1875 -1.421875 15.59375 -0.703125 C 14 0.015625 12.125 0.375 9.96875 0.375 C 8.175781 0.375 6.671875 0.25 5.453125 0 C 4.234375 -0.257812 2.96875 -0.703125 1.65625 -1.328125 L 1.65625 -7.8125 C 3.039062 -7.101562 4.484375 -6.546875 5.984375 -6.140625 C 7.484375 -5.742188 8.863281 -5.546875 10.125 -5.546875 C 11.195312 -5.546875 11.984375 -5.734375 12.484375 -6.109375 C 12.992188 -6.484375 13.25 -6.96875 13.25 -7.5625 C 13.25 -7.925781 13.144531 -8.242188 12.9375 -8.515625 C 12.738281 -8.796875 12.414062 -9.078125 11.96875 -9.359375 C 11.519531 -9.640625 10.328125 -10.21875 8.390625 -11.09375 C 6.628906 -11.894531 5.304688 -12.671875 4.421875 -13.421875 C 3.546875 -14.171875 2.894531 -15.03125 2.46875 -16 C 2.050781 -16.96875 1.84375 -18.117188 1.84375 -19.453125 C 1.84375 -21.929688 2.742188 -23.863281 4.546875 -25.25 C 6.359375 -26.632812 8.84375 -27.328125 12 -27.328125 C 14.789062 -27.328125 17.632812 -26.6875 20.53125 -25.40625 L 18.296875 -19.78125 C 15.785156 -20.9375 13.613281 -21.515625 11.78125 -21.515625 C 10.832031 -21.515625 10.140625 -21.347656 9.703125 -21.015625 C 9.273438 -20.679688 9.0625 -20.269531 9.0625 -19.78125 C 9.0625 -19.25 9.332031 -18.773438 9.875 -18.359375 C 10.425781 -17.941406 11.914062 -17.179688 14.34375 -16.078125 C 16.664062 -15.023438 18.273438 -13.898438 19.171875 -12.703125 C 20.078125 -11.503906 20.53125 -10 20.53125 -8.1875 Z M 20.53125 -8.1875 "/></g></g></g><g fill="#000000" fill-opacity="1"><g transform="translate(396.140845, 211.874983)"><g><path d="M 1.578125 -3.0625 C 1.578125 -4.1875 1.910156 -5.054688 2.578125 -5.671875 C 3.253906 -6.285156 4.234375 -6.59375 5.515625 -6.59375 C 6.734375 -6.59375 7.664062 -6.285156 8.3125 -5.671875 C 8.96875 -5.054688 9.296875 -4.1875 9.296875 -3.0625 C 9.296875 -1.957031 8.957031 -1.09375 8.28125 -0.46875 C 7.613281 0.144531 6.691406 0.453125 5.515625 0.453125 C 4.296875 0.453125 3.332031 0.148438 2.625 -0.453125 C 1.925781 -1.066406 1.578125 -1.9375 1.578125 -3.0625 Z M 1.578125 -3.0625 "/></g></g></g><g fill="#000000" fill-opacity="1"><g transform="translate(407.051824, 211.874983)"><g><path d="M 1.578125 -3.0625 C 1.578125 -4.1875 1.910156 -5.054688 2.578125 -5.671875 C 3.253906 -6.285156 4.234375 -6.59375 5.515625 -6.59375 C 6.734375 -6.59375 7.664062 -6.285156 8.3125 -5.671875 C 8.96875 -5.054688 9.296875 -4.1875 9.296875 -3.0625 C 9.296875 -1.957031 8.957031 -1.09375 8.28125 -0.46875 C 7.613281 0.144531 6.691406 0.453125 5.515625 0.453125 C 4.296875 0.453125 3.332031 0.148438 2.625 -0.453125 C 1.925781 -1.066406 1.578125 -1.9375 1.578125 -3.0625 Z M 1.578125 -3.0625 "/></g></g></g><g fill="#000000" fill-opacity="1"><g transform="translate(417.962804, 211.874983)"><g><path d="M 1.578125 -3.0625 C 1.578125 -4.1875 1.910156 -5.054688 2.578125 -5.671875 C 3.253906 -6.285156 4.234375 -6.59375 5.515625 -6.59375 C 6.734375 -6.59375 7.664062 -6.285156 8.3125 -5.671875 C 8.96875 -5.054688 9.296875 -4.1875 9.296875 -3.0625 C 9.296875 -1.957031 8.957031 -1.09375 8.28125 -0.46875 C 7.613281 0.144531 6.691406 0.453125 5.515625 0.453125 C 4.296875 0.453125 3.332031 0.148438 2.625 -0.453125 C 1.925781 -1.066406 1.578125 -1.9375 1.578125 -3.0625 Z M 1.578125 -3.0625 "/></g></g></g></svg>