<svg xmlns="http://www.w3.org/2000/svg" xmlns:xlink="http://www.w3.org/1999/xlink" width="1920" zoomAndPan="magnify" viewBox="0 0 1440 525.000007" height="700" preserveAspectRatio="xMidYMid meet" version="1.0"><defs><g/></defs><g fill="#ffffff" fill-opacity="1"><g transform="translate(132.703995, 237.086304)"><g><path d="M 30.34375 -43.484375 C 26.820312 -43.484375 24.070312 -42.035156 22.09375 -39.140625 C 20.113281 -36.253906 19.125 -32.273438 19.125 -27.203125 C 19.125 -16.640625 23.140625 -11.359375 31.171875 -11.359375 C 33.597656 -11.359375 35.945312 -11.695312 38.21875 -12.375 C 40.5 -13.050781 42.789062 -13.863281 45.09375 -14.8125 L 45.09375 -2.28125 C 40.507812 -0.257812 35.332031 0.75 29.5625 0.75 C 21.28125 0.75 14.929688 -1.648438 10.515625 -6.453125 C 6.109375 -11.253906 3.90625 -18.191406 3.90625 -27.265625 C 3.90625 -32.941406 4.972656 -37.929688 7.109375 -42.234375 C 9.242188 -46.535156 12.316406 -49.84375 16.328125 -52.15625 C 20.347656 -54.476562 25.070312 -55.640625 30.5 -55.640625 C 36.425781 -55.640625 42.09375 -54.347656 47.5 -51.765625 L 42.953125 -40.109375 C 40.929688 -41.054688 38.90625 -41.851562 36.875 -42.5 C 34.851562 -43.15625 32.675781 -43.484375 30.34375 -43.484375 Z M 30.34375 -43.484375 "/></g></g></g><g fill="#ffffff" fill-opacity="1"><g transform="translate(182.564395, 237.086304)"><g><path d="M 57.25 -27.5 C 57.25 -18.269531 54.984375 -11.253906 50.453125 -6.453125 C 45.929688 -1.648438 39.304688 0.75 30.578125 0.75 C 21.972656 0.75 15.375 -1.660156 10.78125 -6.484375 C 6.195312 -11.316406 3.90625 -18.347656 3.90625 -27.578125 C 3.90625 -36.703125 6.1875 -43.671875 10.75 -48.484375 C 15.3125 -53.296875 21.945312 -55.703125 30.65625 -55.703125 C 39.375 -55.703125 45.984375 -53.3125 50.484375 -48.53125 C 54.992188 -43.757812 57.25 -36.75 57.25 -27.5 Z M 19.5 -27.5 C 19.5 -16.894531 23.191406 -11.59375 30.578125 -11.59375 C 34.328125 -11.59375 37.109375 -12.878906 38.921875 -15.453125 C 40.734375 -18.023438 41.640625 -22.039062 41.640625 -27.5 C 41.640625 -32.976562 40.71875 -37.019531 38.875 -39.625 C 37.039062 -42.238281 34.300781 -43.546875 30.65625 -43.546875 C 23.21875 -43.546875 19.5 -38.195312 19.5 -27.5 Z M 19.5 -27.5 "/></g></g></g><g fill="#ffffff" fill-opacity="1"><g transform="translate(243.792508, 237.086304)"><g><path d="M 29.828125 0 L 18.609375 -39.5 L 18.265625 -39.5 C 18.796875 -32.769531 19.0625 -27.546875 19.0625 -23.828125 L 19.0625 0 L 5.921875 0 L 5.921875 -54.84375 L 25.65625 -54.84375 L 37.09375 -15.90625 L 37.40625 -15.90625 L 48.625 -54.84375 L 68.390625 -54.84375 L 68.390625 0 L 54.765625 0 L 54.765625 -24.046875 C 54.765625 -25.296875 54.78125 -26.679688 54.8125 -28.203125 C 54.851562 -29.734375 55.023438 -33.472656 55.328125 -39.421875 L 55 -39.421875 L 43.921875 0 Z M 29.828125 0 "/></g></g></g><g fill="#ffffff" fill-opacity="1"><g transform="translate(318.076617, 237.086304)"><g><path d="M 57.25 -27.5 C 57.25 -18.269531 54.984375 -11.253906 50.453125 -6.453125 C 45.929688 -1.648438 39.304688 0.75 30.578125 0.75 C 21.972656 0.75 15.375 -1.660156 10.78125 -6.484375 C 6.195312 -11.316406 3.90625 -18.347656 3.90625 -27.578125 C 3.90625 -36.703125 6.1875 -43.671875 10.75 -48.484375 C 15.3125 -53.296875 21.945312 -55.703125 30.65625 -55.703125 C 39.375 -55.703125 45.984375 -53.3125 50.484375 -48.53125 C 54.992188 -43.757812 57.25 -36.75 57.25 -27.5 Z M 19.5 -27.5 C 19.5 -16.894531 23.191406 -11.59375 30.578125 -11.59375 C 34.328125 -11.59375 37.109375 -12.878906 38.921875 -15.453125 C 40.734375 -18.023438 41.640625 -22.039062 41.640625 -27.5 C 41.640625 -32.976562 40.71875 -37.019531 38.875 -39.625 C 37.039062 -42.238281 34.300781 -43.546875 30.65625 -43.546875 C 23.21875 -43.546875 19.5 -38.195312 19.5 -27.5 Z M 19.5 -27.5 "/></g></g></g><g fill="#ffffff" fill-opacity="1"><g transform="translate(379.304731, 237.086304)"><g/></g></g><g fill="#ffffff" fill-opacity="1"><g transform="translate(399.263895, 237.086304)"><g><path d="M 52.5625 -54.84375 L 52.5625 -21.828125 C 52.5625 -14.648438 50.523438 -9.09375 46.453125 -5.15625 C 42.390625 -1.21875 36.535156 0.75 28.890625 0.75 C 21.410156 0.75 15.660156 -1.160156 11.640625 -4.984375 C 7.628906 -8.816406 5.625 -14.320312 5.625 -21.5 L 5.625 -54.84375 L 20.515625 -54.84375 L 20.515625 -22.65625 C 20.515625 -18.78125 21.238281 -15.96875 22.6875 -14.21875 C 24.144531 -12.46875 26.285156 -11.59375 29.109375 -11.59375 C 32.140625 -11.59375 34.332031 -12.460938 35.6875 -14.203125 C 37.050781 -15.941406 37.734375 -18.785156 37.734375 -22.734375 L 37.734375 -54.84375 Z M 52.5625 -54.84375 "/></g></g></g><g fill="#ffffff" fill-opacity="1"><g transform="translate(457.415585, 237.086304)"><g><path d="M 29.828125 0 L 18.609375 -39.5 L 18.265625 -39.5 C 18.796875 -32.769531 19.0625 -27.546875 19.0625 -23.828125 L 19.0625 0 L 5.921875 0 L 5.921875 -54.84375 L 25.65625 -54.84375 L 37.09375 -15.90625 L 37.40625 -15.90625 L 48.625 -54.84375 L 68.390625 -54.84375 L 68.390625 0 L 54.765625 0 L 54.765625 -24.046875 C 54.765625 -25.296875 54.78125 -26.679688 54.8125 -28.203125 C 54.851562 -29.734375 55.023438 -33.472656 55.328125 -39.421875 L 55 -39.421875 L 43.921875 0 Z M 29.828125 0 "/></g></g></g><g fill="#ffffff" fill-opacity="1"><g transform="translate(531.699717, 237.086304)"><g/></g></g><g fill="#ffffff" fill-opacity="1"><g transform="translate(551.658904, 237.086304)"><g><path d="M 45.734375 -37.40625 C 45.734375 -31.269531 43.925781 -26.53125 40.3125 -23.1875 C 36.695312 -19.851562 31.5625 -18.1875 24.90625 -18.1875 L 20.75 -18.1875 L 20.75 0 L 5.921875 0 L 5.921875 -54.84375 L 24.90625 -54.84375 C 31.832031 -54.84375 37.035156 -53.328125 40.515625 -50.296875 C 43.992188 -47.273438 45.734375 -42.976562 45.734375 -37.40625 Z M 20.75 -30.28125 L 23.453125 -30.28125 C 25.671875 -30.28125 27.4375 -30.90625 28.75 -32.15625 C 30.0625 -33.40625 30.71875 -35.128906 30.71875 -37.328125 C 30.71875 -41.023438 28.671875 -42.875 24.578125 -42.875 L 20.75 -42.875 Z M 20.75 -30.28125 "/></g></g></g><g fill="#ffffff" fill-opacity="1"><g transform="translate(600.206184, 237.086304)"><g><path d="M 57.25 -27.5 C 57.25 -18.269531 54.984375 -11.253906 50.453125 -6.453125 C 45.929688 -1.648438 39.304688 0.75 30.578125 0.75 C 21.972656 0.75 15.375 -1.660156 10.78125 -6.484375 C 6.195312 -11.316406 3.90625 -18.347656 3.90625 -27.578125 C 3.90625 -36.703125 6.1875 -43.671875 10.75 -48.484375 C 15.3125 -53.296875 21.945312 -55.703125 30.65625 -55.703125 C 39.375 -55.703125 45.984375 -53.3125 50.484375 -48.53125 C 54.992188 -43.757812 57.25 -36.75 57.25 -27.5 Z M 19.5 -27.5 C 19.5 -16.894531 23.191406 -11.59375 30.578125 -11.59375 C 34.328125 -11.59375 37.109375 -12.878906 38.921875 -15.453125 C 40.734375 -18.023438 41.640625 -22.039062 41.640625 -27.5 C 41.640625 -32.976562 40.71875 -37.019531 38.875 -39.625 C 37.039062 -42.238281 34.300781 -43.546875 30.65625 -43.546875 C 23.21875 -43.546875 19.5 -38.195312 19.5 -27.5 Z M 19.5 -27.5 "/></g></g></g><g fill="#ffffff" fill-opacity="1"><g transform="translate(661.434298, 237.086304)"><g><path d="M 52.484375 -28.578125 C 52.484375 -19.429688 49.960938 -12.378906 44.921875 -7.421875 C 39.878906 -2.472656 32.796875 0 23.671875 0 L 5.921875 0 L 5.921875 -54.84375 L 24.90625 -54.84375 C 33.707031 -54.84375 40.503906 -52.59375 45.296875 -48.09375 C 50.085938 -43.59375 52.484375 -37.085938 52.484375 -28.578125 Z M 37.09375 -28.0625 C 37.09375 -33.082031 36.097656 -36.804688 34.109375 -39.234375 C 32.128906 -41.660156 29.113281 -42.875 25.0625 -42.875 L 20.75 -42.875 L 20.75 -12.15625 L 24.046875 -12.15625 C 28.546875 -12.15625 31.84375 -13.460938 33.9375 -16.078125 C 36.039062 -18.691406 37.09375 -22.6875 37.09375 -28.0625 Z M 37.09375 -28.0625 "/></g></g></g><g fill="#ffffff" fill-opacity="1"><g transform="translate(717.822683, 237.086304)"><g><path d="M 38.484375 0 L 5.921875 0 L 5.921875 -54.84375 L 38.484375 -54.84375 L 38.484375 -42.953125 L 20.75 -42.953125 L 20.75 -34.328125 L 37.171875 -34.328125 L 37.171875 -22.4375 L 20.75 -22.4375 L 20.75 -12.078125 L 38.484375 -12.078125 Z M 38.484375 0 "/></g></g></g><g fill="#ffffff" fill-opacity="1"><g transform="translate(759.992022, 237.086304)"><g><path d="M 20.75 -19.953125 L 20.75 0 L 5.921875 0 L 5.921875 -54.84375 L 23.890625 -54.84375 C 38.796875 -54.84375 46.25 -49.441406 46.25 -38.640625 C 46.25 -32.285156 43.148438 -27.367188 36.953125 -23.890625 L 52.9375 0 L 36.125 0 L 24.5 -19.953125 Z M 20.75 -31.09375 L 23.515625 -31.09375 C 28.691406 -31.09375 31.28125 -33.382812 31.28125 -37.96875 C 31.28125 -41.738281 28.742188 -43.625 23.671875 -43.625 L 20.75 -43.625 Z M 20.75 -31.09375 "/></g></g></g><g fill="#ffffff" fill-opacity="1"><g transform="translate(811.990909, 237.086304)"><g><path d="M 57.25 -27.5 C 57.25 -18.269531 54.984375 -11.253906 50.453125 -6.453125 C 45.929688 -1.648438 39.304688 0.75 30.578125 0.75 C 21.972656 0.75 15.375 -1.660156 10.78125 -6.484375 C 6.195312 -11.316406 3.90625 -18.347656 3.90625 -27.578125 C 3.90625 -36.703125 6.1875 -43.671875 10.75 -48.484375 C 15.3125 -53.296875 21.945312 -55.703125 30.65625 -55.703125 C 39.375 -55.703125 45.984375 -53.3125 50.484375 -48.53125 C 54.992188 -43.757812 57.25 -36.75 57.25 -27.5 Z M 19.5 -27.5 C 19.5 -16.894531 23.191406 -11.59375 30.578125 -11.59375 C 34.328125 -11.59375 37.109375 -12.878906 38.921875 -15.453125 C 40.734375 -18.023438 41.640625 -22.039062 41.640625 -27.5 C 41.640625 -32.976562 40.71875 -37.019531 38.875 -39.625 C 37.039062 -42.238281 34.300781 -43.546875 30.65625 -43.546875 C 23.21875 -43.546875 19.5 -38.195312 19.5 -27.5 Z M 19.5 -27.5 "/></g></g></g><g fill="#ffffff" fill-opacity="1"><g transform="translate(873.219023, 237.086304)"><g><path d="M 41.796875 -16.65625 C 41.796875 -13.25 40.929688 -10.226562 39.203125 -7.59375 C 37.472656 -4.957031 34.984375 -2.90625 31.734375 -1.4375 C 28.484375 0.0195312 24.671875 0.75 20.296875 0.75 C 16.640625 0.75 13.570312 0.492188 11.09375 -0.015625 C 8.625 -0.523438 6.050781 -1.421875 3.375 -2.703125 L 3.375 -15.90625 C 6.195312 -14.457031 9.132812 -13.328125 12.1875 -12.515625 C 15.238281 -11.703125 18.039062 -11.296875 20.59375 -11.296875 C 22.789062 -11.296875 24.398438 -11.675781 25.421875 -12.4375 C 26.453125 -13.195312 26.96875 -14.175781 26.96875 -15.375 C 26.96875 -16.125 26.757812 -16.78125 26.34375 -17.34375 C 25.9375 -17.90625 25.273438 -18.472656 24.359375 -19.046875 C 23.453125 -19.628906 21.019531 -20.804688 17.0625 -22.578125 C 13.488281 -24.203125 10.804688 -25.773438 9.015625 -27.296875 C 7.234375 -28.828125 5.910156 -30.582031 5.046875 -32.5625 C 4.179688 -34.539062 3.75 -36.878906 3.75 -39.578125 C 3.75 -44.628906 5.585938 -48.566406 9.265625 -51.390625 C 12.941406 -54.222656 17.992188 -55.640625 24.421875 -55.640625 C 30.097656 -55.640625 35.890625 -54.320312 41.796875 -51.6875 L 37.25 -40.25 C 32.125 -42.601562 27.695312 -43.78125 23.96875 -43.78125 C 22.039062 -43.78125 20.640625 -43.441406 19.765625 -42.765625 C 18.890625 -42.085938 18.453125 -41.25 18.453125 -40.25 C 18.453125 -39.175781 19.007812 -38.210938 20.125 -37.359375 C 21.238281 -36.515625 24.257812 -34.96875 29.1875 -32.71875 C 33.914062 -30.582031 37.195312 -28.296875 39.03125 -25.859375 C 40.875 -23.421875 41.796875 -20.351562 41.796875 -16.65625 Z M 41.796875 -16.65625 "/></g></g></g><g fill="#ffffff" fill-opacity="1"><g transform="translate(917.564372, 237.086304)"><g><path d="M 57.25 -27.5 C 57.25 -18.269531 54.984375 -11.253906 50.453125 -6.453125 C 45.929688 -1.648438 39.304688 0.75 30.578125 0.75 C 21.972656 0.75 15.375 -1.660156 10.78125 -6.484375 C 6.195312 -11.316406 3.90625 -18.347656 3.90625 -27.578125 C 3.90625 -36.703125 6.1875 -43.671875 10.75 -48.484375 C 15.3125 -53.296875 21.945312 -55.703125 30.65625 -55.703125 C 39.375 -55.703125 45.984375 -53.3125 50.484375 -48.53125 C 54.992188 -43.757812 57.25 -36.75 57.25 -27.5 Z M 19.5 -27.5 C 19.5 -16.894531 23.191406 -11.59375 30.578125 -11.59375 C 34.328125 -11.59375 37.109375 -12.878906 38.921875 -15.453125 C 40.734375 -18.023438 41.640625 -22.039062 41.640625 -27.5 C 41.640625 -32.976562 40.71875 -37.019531 38.875 -39.625 C 37.039062 -42.238281 34.300781 -43.546875 30.65625 -43.546875 C 23.21875 -43.546875 19.5 -38.195312 19.5 -27.5 Z M 19.5 -27.5 "/></g></g></g><g fill="#ffffff" fill-opacity="1"><g transform="translate(978.792439, 237.086304)"><g/></g></g><g fill="#ffffff" fill-opacity="1"><g transform="translate(998.751627, 237.086304)"><g><path d="M 30.125 0 L 15.3125 0 L 15.3125 -42.734375 L 1.90625 -42.734375 L 1.90625 -54.84375 L 43.484375 -54.84375 L 43.484375 -42.734375 L 30.125 -42.734375 Z M 30.125 0 "/></g></g></g><g fill="#ffffff" fill-opacity="1"><g transform="translate(1044.147435, 237.086304)"><g><path d="M 57.25 -27.5 C 57.25 -18.269531 54.984375 -11.253906 50.453125 -6.453125 C 45.929688 -1.648438 39.304688 0.75 30.578125 0.75 C 21.972656 0.75 15.375 -1.660156 10.78125 -6.484375 C 6.195312 -11.316406 3.90625 -18.347656 3.90625 -27.578125 C 3.90625 -36.703125 6.1875 -43.671875 10.75 -48.484375 C 15.3125 -53.296875 21.945312 -55.703125 30.65625 -55.703125 C 39.375 -55.703125 45.984375 -53.3125 50.484375 -48.53125 C 54.992188 -43.757812 57.25 -36.75 57.25 -27.5 Z M 19.5 -27.5 C 19.5 -16.894531 23.191406 -11.59375 30.578125 -11.59375 C 34.328125 -11.59375 37.109375 -12.878906 38.921875 -15.453125 C 40.734375 -18.023438 41.640625 -22.039062 41.640625 -27.5 C 41.640625 -32.976562 40.71875 -37.019531 38.875 -39.625 C 37.039062 -42.238281 34.300781 -43.546875 30.65625 -43.546875 C 23.21875 -43.546875 19.5 -38.195312 19.5 -27.5 Z M 37.65625 -59.546875 C 35.550781 -60.753906 33.035156 -62.632812 30.109375 -65.1875 C 26.984375 -62.507812 24.554688 -60.628906 22.828125 -59.546875 L 13.15625 -59.546875 L 13.15625 -60.640625 C 14.875 -62.265625 16.675781 -64.175781 18.5625 -66.375 C 20.457031 -68.582031 21.878906 -70.410156 22.828125 -71.859375 L 37.578125 -71.859375 C 39.921875 -68.429688 43.117188 -64.691406 47.171875 -60.640625 L 47.171875 -59.546875 Z M 37.65625 -59.546875 "/></g></g></g><g fill="#ffffff" fill-opacity="1"><g transform="translate(1105.375549, 237.086304)"><g><path d="M 58.140625 0 L 38.71875 0 L 18.6875 -38.640625 L 18.34375 -38.640625 C 18.820312 -32.554688 19.0625 -27.914062 19.0625 -24.71875 L 19.0625 0 L 5.921875 0 L 5.921875 -54.84375 L 25.28125 -54.84375 L 45.234375 -16.734375 L 45.46875 -16.734375 C 45.113281 -22.253906 44.9375 -26.691406 44.9375 -30.046875 L 44.9375 -54.84375 L 58.140625 -54.84375 Z M 58.140625 0 "/></g></g></g><g fill="#ffffff" fill-opacity="1"><g transform="translate(1169.454947, 237.086304)"><g><path d="M 5.921875 0 L 5.921875 -54.84375 L 20.8125 -54.84375 L 20.8125 0 Z M 5.921875 0 "/></g></g></g><g fill="#ffffff" fill-opacity="1"><g transform="translate(1196.204735, 237.086304)"><g><path d="M 30.34375 -43.484375 C 26.820312 -43.484375 24.070312 -42.035156 22.09375 -39.140625 C 20.113281 -36.253906 19.125 -32.273438 19.125 -27.203125 C 19.125 -16.640625 23.140625 -11.359375 31.171875 -11.359375 C 33.597656 -11.359375 35.945312 -11.695312 38.21875 -12.375 C 40.5 -13.050781 42.789062 -13.863281 45.09375 -14.8125 L 45.09375 -2.28125 C 40.507812 -0.257812 35.332031 0.75 29.5625 0.75 C 21.28125 0.75 14.929688 -1.648438 10.515625 -6.453125 C 6.109375 -11.253906 3.90625 -18.191406 3.90625 -27.265625 C 3.90625 -32.941406 4.972656 -37.929688 7.109375 -42.234375 C 9.242188 -46.535156 12.316406 -49.84375 16.328125 -52.15625 C 20.347656 -54.476562 25.070312 -55.640625 30.5 -55.640625 C 36.425781 -55.640625 42.09375 -54.347656 47.5 -51.765625 L 42.953125 -40.109375 C 40.929688 -41.054688 38.90625 -41.851562 36.875 -42.5 C 34.851562 -43.15625 32.675781 -43.484375 30.34375 -43.484375 Z M 30.34375 -43.484375 "/></g></g></g><g fill="#ffffff" fill-opacity="1"><g transform="translate(1246.065087, 237.086304)"><g><path d="M 57.25 -27.5 C 57.25 -18.269531 54.984375 -11.253906 50.453125 -6.453125 C 45.929688 -1.648438 39.304688 0.75 30.578125 0.75 C 21.972656 0.75 15.375 -1.660156 10.78125 -6.484375 C 6.195312 -11.316406 3.90625 -18.347656 3.90625 -27.578125 C 3.90625 -36.703125 6.1875 -43.671875 10.75 -48.484375 C 15.3125 -53.296875 21.945312 -55.703125 30.65625 -55.703125 C 39.375 -55.703125 45.984375 -53.3125 50.484375 -48.53125 C 54.992188 -43.757812 57.25 -36.75 57.25 -27.5 Z M 19.5 -27.5 C 19.5 -16.894531 23.191406 -11.59375 30.578125 -11.59375 C 34.328125 -11.59375 37.109375 -12.878906 38.921875 -15.453125 C 40.734375 -18.023438 41.640625 -22.039062 41.640625 -27.5 C 41.640625 -32.976562 40.71875 -37.019531 38.875 -39.625 C 37.039062 -42.238281 34.300781 -43.546875 30.65625 -43.546875 C 23.21875 -43.546875 19.5 -38.195312 19.5 -27.5 Z M 19.5 -27.5 "/></g></g></g><g fill="#ffffff" fill-opacity="1"><g transform="translate(11.041033, 333.705663)"><g><path d="M 30.34375 -43.484375 C 26.820312 -43.484375 24.070312 -42.035156 22.09375 -39.140625 C 20.113281 -36.253906 19.125 -32.273438 19.125 -27.203125 C 19.125 -16.640625 23.140625 -11.359375 31.171875 -11.359375 C 33.597656 -11.359375 35.945312 -11.695312 38.21875 -12.375 C 40.5 -13.050781 42.789062 -13.863281 45.09375 -14.8125 L 45.09375 -2.28125 C 40.507812 -0.257812 35.332031 0.75 29.5625 0.75 C 21.28125 0.75 14.929688 -1.648438 10.515625 -6.453125 C 6.109375 -11.253906 3.90625 -18.191406 3.90625 -27.265625 C 3.90625 -32.941406 4.972656 -37.929688 7.109375 -42.234375 C 9.242188 -46.535156 12.316406 -49.84375 16.328125 -52.15625 C 20.347656 -54.476562 25.070312 -55.640625 30.5 -55.640625 C 36.425781 -55.640625 42.09375 -54.347656 47.5 -51.765625 L 42.953125 -40.109375 C 40.929688 -41.054688 38.90625 -41.851562 36.875 -42.5 C 34.851562 -43.15625 32.675781 -43.484375 30.34375 -43.484375 Z M 30.34375 -43.484375 "/></g></g></g><g fill="#ffffff" fill-opacity="1"><g transform="translate(60.901433, 333.705663)"><g><path d="M 57.25 -27.5 C 57.25 -18.269531 54.984375 -11.253906 50.453125 -6.453125 C 45.929688 -1.648438 39.304688 0.75 30.578125 0.75 C 21.972656 0.75 15.375 -1.660156 10.78125 -6.484375 C 6.195312 -11.316406 3.90625 -18.347656 3.90625 -27.578125 C 3.90625 -36.703125 6.1875 -43.671875 10.75 -48.484375 C 15.3125 -53.296875 21.945312 -55.703125 30.65625 -55.703125 C 39.375 -55.703125 45.984375 -53.3125 50.484375 -48.53125 C 54.992188 -43.757812 57.25 -36.75 57.25 -27.5 Z M 19.5 -27.5 C 19.5 -16.894531 23.191406 -11.59375 30.578125 -11.59375 C 34.328125 -11.59375 37.109375 -12.878906 38.921875 -15.453125 C 40.734375 -18.023438 41.640625 -22.039062 41.640625 -27.5 C 41.640625 -32.976562 40.71875 -37.019531 38.875 -39.625 C 37.039062 -42.238281 34.300781 -43.546875 30.65625 -43.546875 C 23.21875 -43.546875 19.5 -38.195312 19.5 -27.5 Z M 19.5 -27.5 "/></g></g></g><g fill="#ffffff" fill-opacity="1"><g transform="translate(122.129547, 333.705663)"><g><path d="M 20.75 -19.953125 L 20.75 0 L 5.921875 0 L 5.921875 -54.84375 L 23.890625 -54.84375 C 38.796875 -54.84375 46.25 -49.441406 46.25 -38.640625 C 46.25 -32.285156 43.148438 -27.367188 36.953125 -23.890625 L 52.9375 0 L 36.125 0 L 24.5 -19.953125 Z M 20.75 -31.09375 L 23.515625 -31.09375 C 28.691406 -31.09375 31.28125 -33.382812 31.28125 -37.96875 C 31.28125 -41.738281 28.742188 -43.625 23.671875 -43.625 L 20.75 -43.625 Z M 20.75 -31.09375 "/></g></g></g><g fill="#ffffff" fill-opacity="1"><g transform="translate(174.128423, 333.705663)"><g><path d="M 38.484375 0 L 5.921875 0 L 5.921875 -54.84375 L 38.484375 -54.84375 L 38.484375 -42.953125 L 20.75 -42.953125 L 20.75 -34.328125 L 37.171875 -34.328125 L 37.171875 -22.4375 L 20.75 -22.4375 L 20.75 -12.078125 L 38.484375 -12.078125 Z M 38.484375 0 "/></g></g></g><g fill="#ffffff" fill-opacity="1"><g transform="translate(216.297773, 333.705663)"><g><path d="M 39.578125 0 L 36.875 -10.28125 L 19.0625 -10.28125 L 16.28125 0 L 0 0 L 17.890625 -55.0625 L 37.65625 -55.0625 L 55.78125 0 Z M 33.796875 -22.4375 L 31.4375 -31.4375 C 30.882812 -33.4375 30.210938 -36.023438 29.421875 -39.203125 C 28.640625 -42.378906 28.125 -44.65625 27.875 -46.03125 C 27.644531 -44.75 27.195312 -42.644531 26.53125 -39.71875 C 25.875 -36.800781 24.410156 -31.039062 22.140625 -22.4375 Z M 33.796875 -22.4375 "/></g></g></g><g fill="#ffffff" fill-opacity="1"><g transform="translate(272.085883, 333.705663)"><g><path d="M 58.140625 0 L 38.71875 0 L 18.6875 -38.640625 L 18.34375 -38.640625 C 18.820312 -32.554688 19.0625 -27.914062 19.0625 -24.71875 L 19.0625 0 L 5.921875 0 L 5.921875 -54.84375 L 25.28125 -54.84375 L 45.234375 -16.734375 L 45.46875 -16.734375 C 45.113281 -22.253906 44.9375 -26.691406 44.9375 -30.046875 L 44.9375 -54.84375 L 58.140625 -54.84375 Z M 58.140625 0 "/></g></g></g><g fill="#ffffff" fill-opacity="1"><g transform="translate(336.165305, 333.705663)"><g><path d="M 57.25 -27.5 C 57.25 -18.269531 54.984375 -11.253906 50.453125 -6.453125 C 45.929688 -1.648438 39.304688 0.75 30.578125 0.75 C 21.972656 0.75 15.375 -1.660156 10.78125 -6.484375 C 6.195312 -11.316406 3.90625 -18.347656 3.90625 -27.578125 C 3.90625 -36.703125 6.1875 -43.671875 10.75 -48.484375 C 15.3125 -53.296875 21.945312 -55.703125 30.65625 -55.703125 C 39.375 -55.703125 45.984375 -53.3125 50.484375 -48.53125 C 54.992188 -43.757812 57.25 -36.75 57.25 -27.5 Z M 19.5 -27.5 C 19.5 -16.894531 23.191406 -11.59375 30.578125 -11.59375 C 34.328125 -11.59375 37.109375 -12.878906 38.921875 -15.453125 C 40.734375 -18.023438 41.640625 -22.039062 41.640625 -27.5 C 41.640625 -32.976562 40.71875 -37.019531 38.875 -39.625 C 37.039062 -42.238281 34.300781 -43.546875 30.65625 -43.546875 C 23.21875 -43.546875 19.5 -38.195312 19.5 -27.5 Z M 19.5 -27.5 "/></g></g></g><g fill="#ffffff" fill-opacity="1"><g transform="translate(397.393419, 333.705663)"><g/></g></g><g fill="#ff1616" fill-opacity="1"><g transform="translate(417.351252, 333.705663)"><g><path d="M 5.921875 -54.84375 L 25.0625 -54.84375 C 32.507812 -54.84375 38.039062 -53.734375 41.65625 -51.515625 C 45.269531 -49.304688 47.078125 -45.863281 47.078125 -41.1875 C 47.078125 -38.113281 46.289062 -35.488281 44.71875 -33.3125 C 43.144531 -31.132812 41.066406 -29.734375 38.484375 -29.109375 L 38.484375 -28.734375 C 41.890625 -27.835938 44.351562 -26.335938 45.875 -24.234375 C 47.40625 -22.128906 48.171875 -19.40625 48.171875 -16.0625 C 48.171875 -11.082031 46.300781 -7.160156 42.5625 -4.296875 C 38.820312 -1.429688 33.722656 0 27.265625 0 L 5.921875 0 Z M 20.75 -33.796875 L 25.203125 -33.796875 C 27.328125 -33.796875 28.972656 -34.234375 30.140625 -35.109375 C 31.304688 -35.984375 31.890625 -37.285156 31.890625 -39.015625 C 31.890625 -42.085938 29.5625 -43.625 24.90625 -43.625 L 20.75 -43.625 Z M 20.75 -22.953125 L 20.75 -11.4375 L 25.953125 -11.4375 C 30.585938 -11.4375 32.90625 -13.390625 32.90625 -17.296875 C 32.90625 -19.117188 32.285156 -20.515625 31.046875 -21.484375 C 29.804688 -22.460938 28.007812 -22.953125 25.65625 -22.953125 Z M 20.75 -22.953125 "/></g></g></g><g fill="#ff1616" fill-opacity="1"><g transform="translate(469.125024, 333.705663)"><g><path d="M 39.578125 0 L 36.875 -10.28125 L 19.0625 -10.28125 L 16.28125 0 L 0 0 L 17.890625 -55.0625 L 37.65625 -55.0625 L 55.78125 0 Z M 33.796875 -22.4375 L 31.4375 -31.4375 C 30.882812 -33.4375 30.210938 -36.023438 29.421875 -39.203125 C 28.640625 -42.378906 28.125 -44.65625 27.875 -46.03125 C 27.644531 -44.75 27.195312 -42.644531 26.53125 -39.71875 C 25.875 -36.800781 24.410156 -31.039062 22.140625 -22.4375 Z M 33.796875 -22.4375 "/></g></g></g><g fill="#ff1616" fill-opacity="1"><g transform="translate(524.913146, 333.705663)"><g><path d="M 5.921875 0 L 5.921875 -54.84375 L 20.8125 -54.84375 L 20.8125 0 Z M 5.921875 0 "/></g></g></g><g fill="#ff1616" fill-opacity="1"><g transform="translate(551.662934, 333.705663)"><g><path d="M 55.328125 0 L 38.1875 0 L 27.5 -17.140625 L 16.921875 0 L 0.15625 0 L 18.34375 -28.0625 L 1.234375 -54.84375 L 17.671875 -54.84375 L 27.578125 -37.890625 L 37.09375 -54.84375 L 54.015625 -54.84375 L 36.65625 -26.890625 Z M 55.328125 0 "/></g></g></g><g fill="#ff1616" fill-opacity="1"><g transform="translate(607.225953, 333.705663)"><g><path d="M 57.25 -27.5 C 57.25 -18.269531 54.984375 -11.253906 50.453125 -6.453125 C 45.929688 -1.648438 39.304688 0.75 30.578125 0.75 C 21.972656 0.75 15.375 -1.660156 10.78125 -6.484375 C 6.195312 -11.316406 3.90625 -18.347656 3.90625 -27.578125 C 3.90625 -36.703125 6.1875 -43.671875 10.75 -48.484375 C 15.3125 -53.296875 21.945312 -55.703125 30.65625 -55.703125 C 39.375 -55.703125 45.984375 -53.3125 50.484375 -48.53125 C 54.992188 -43.757812 57.25 -36.75 57.25 -27.5 Z M 19.5 -27.5 C 19.5 -16.894531 23.191406 -11.59375 30.578125 -11.59375 C 34.328125 -11.59375 37.109375 -12.878906 38.921875 -15.453125 C 40.734375 -18.023438 41.640625 -22.039062 41.640625 -27.5 C 41.640625 -32.976562 40.71875 -37.019531 38.875 -39.625 C 37.039062 -42.238281 34.300781 -43.546875 30.65625 -43.546875 C 23.21875 -43.546875 19.5 -38.195312 19.5 -27.5 Z M 19.5 -27.5 "/></g></g></g><g fill="#ff1616" fill-opacity="1"><g transform="translate(668.454078, 333.705663)"><g><path d="M 52.5625 -54.84375 L 52.5625 -21.828125 C 52.5625 -14.648438 50.523438 -9.09375 46.453125 -5.15625 C 42.390625 -1.21875 36.535156 0.75 28.890625 0.75 C 21.410156 0.75 15.660156 -1.160156 11.640625 -4.984375 C 7.628906 -8.816406 5.625 -14.320312 5.625 -21.5 L 5.625 -54.84375 L 20.515625 -54.84375 L 20.515625 -22.65625 C 20.515625 -18.78125 21.238281 -15.96875 22.6875 -14.21875 C 24.144531 -12.46875 26.285156 -11.59375 29.109375 -11.59375 C 32.140625 -11.59375 34.332031 -12.460938 35.6875 -14.203125 C 37.050781 -15.941406 37.734375 -18.785156 37.734375 -22.734375 L 37.734375 -54.84375 Z M 52.5625 -54.84375 "/></g></g></g><g fill="#ff1616" fill-opacity="1"><g transform="translate(726.605768, 333.705663)"><g/></g></g><g fill="#ff1616" fill-opacity="1"><g transform="translate(746.564932, 333.705663)"><g><path d="M 29.828125 0 L 18.609375 -39.5 L 18.265625 -39.5 C 18.796875 -32.769531 19.0625 -27.546875 19.0625 -23.828125 L 19.0625 0 L 5.921875 0 L 5.921875 -54.84375 L 25.65625 -54.84375 L 37.09375 -15.90625 L 37.40625 -15.90625 L 48.625 -54.84375 L 68.390625 -54.84375 L 68.390625 0 L 54.765625 0 L 54.765625 -24.046875 C 54.765625 -25.296875 54.78125 -26.679688 54.8125 -28.203125 C 54.851562 -29.734375 55.023438 -33.472656 55.328125 -39.421875 L 55 -39.421875 L 43.921875 0 Z M 29.828125 0 "/></g></g></g><g fill="#ff1616" fill-opacity="1"><g transform="translate(820.849041, 333.705663)"><g><path d="M 38.484375 0 L 5.921875 0 L 5.921875 -54.84375 L 38.484375 -54.84375 L 38.484375 -42.953125 L 20.75 -42.953125 L 20.75 -34.328125 L 37.171875 -34.328125 L 37.171875 -22.4375 L 20.75 -22.4375 L 20.75 -12.078125 L 38.484375 -12.078125 Z M 38.484375 0 "/></g></g></g><g fill="#ff1616" fill-opacity="1"><g transform="translate(863.01838, 333.705663)"><g><path d="M 52.5625 -54.84375 L 52.5625 -21.828125 C 52.5625 -14.648438 50.523438 -9.09375 46.453125 -5.15625 C 42.390625 -1.21875 36.535156 0.75 28.890625 0.75 C 21.410156 0.75 15.660156 -1.160156 11.640625 -4.984375 C 7.628906 -8.816406 5.625 -14.320312 5.625 -21.5 L 5.625 -54.84375 L 20.515625 -54.84375 L 20.515625 -22.65625 C 20.515625 -18.78125 21.238281 -15.96875 22.6875 -14.21875 C 24.144531 -12.46875 26.285156 -11.59375 29.109375 -11.59375 C 32.140625 -11.59375 34.332031 -12.460938 35.6875 -14.203125 C 37.050781 -15.941406 37.734375 -18.785156 37.734375 -22.734375 L 37.734375 -54.84375 Z M 52.5625 -54.84375 "/></g></g></g><g fill="#ff1616" fill-opacity="1"><g transform="translate(921.170069, 333.705663)"><g/></g></g><g fill="#ff1616" fill-opacity="1"><g transform="translate(941.129257, 333.705663)"><g><path d="M 30.34375 -43.484375 C 26.820312 -43.484375 24.070312 -42.035156 22.09375 -39.140625 C 20.113281 -36.253906 19.125 -32.273438 19.125 -27.203125 C 19.125 -16.640625 23.140625 -11.359375 31.171875 -11.359375 C 33.597656 -11.359375 35.945312 -11.695312 38.21875 -12.375 C 40.5 -13.050781 42.789062 -13.863281 45.09375 -14.8125 L 45.09375 -2.28125 C 40.507812 -0.257812 35.332031 0.75 29.5625 0.75 C 21.28125 0.75 14.929688 -1.648438 10.515625 -6.453125 C 6.109375 -11.253906 3.90625 -18.191406 3.90625 -27.265625 C 3.90625 -32.941406 4.972656 -37.929688 7.109375 -42.234375 C 9.242188 -46.535156 12.316406 -49.84375 16.328125 -52.15625 C 20.347656 -54.476562 25.070312 -55.640625 30.5 -55.640625 C 36.425781 -55.640625 42.09375 -54.347656 47.5 -51.765625 L 42.953125 -40.109375 C 40.929688 -41.054688 38.90625 -41.851562 36.875 -42.5 C 34.851562 -43.15625 32.675781 -43.484375 30.34375 -43.484375 Z M 30.34375 -43.484375 "/></g></g></g><g fill="#ff1616" fill-opacity="1"><g transform="translate(990.989657, 333.705663)"><g><path d="M 57.25 -27.5 C 57.25 -18.269531 54.984375 -11.253906 50.453125 -6.453125 C 45.929688 -1.648438 39.304688 0.75 30.578125 0.75 C 21.972656 0.75 15.375 -1.660156 10.78125 -6.484375 C 6.195312 -11.316406 3.90625 -18.347656 3.90625 -27.578125 C 3.90625 -36.703125 6.1875 -43.671875 10.75 -48.484375 C 15.3125 -53.296875 21.945312 -55.703125 30.65625 -55.703125 C 39.375 -55.703125 45.984375 -53.3125 50.484375 -48.53125 C 54.992188 -43.757812 57.25 -36.75 57.25 -27.5 Z M 19.5 -27.5 C 19.5 -16.894531 23.191406 -11.59375 30.578125 -11.59375 C 34.328125 -11.59375 37.109375 -12.878906 38.921875 -15.453125 C 40.734375 -18.023438 41.640625 -22.039062 41.640625 -27.5 C 41.640625 -32.976562 40.71875 -37.019531 38.875 -39.625 C 37.039062 -42.238281 34.300781 -43.546875 30.65625 -43.546875 C 23.21875 -43.546875 19.5 -38.195312 19.5 -27.5 Z M 19.5 -27.5 "/></g></g></g><g fill="#ff1616" fill-opacity="1"><g transform="translate(1052.21777, 333.705663)"><g><path d="M 5.921875 0 L 5.921875 -54.84375 L 20.75 -54.84375 L 20.75 -11.96875 L 41.859375 -11.96875 L 41.859375 0 Z M 5.921875 0 "/></g></g></g><g fill="#ff1616" fill-opacity="1"><g transform="translate(1096.938304, 333.705663)"><g><path d="M 38.484375 0 L 5.921875 0 L 5.921875 -54.84375 L 38.484375 -54.84375 L 38.484375 -42.953125 L 20.75 -42.953125 L 20.75 -34.328125 L 37.171875 -34.328125 L 37.171875 -22.4375 L 20.75 -22.4375 L 20.75 -12.078125 L 38.484375 -12.078125 Z M 38.484375 0 "/></g></g></g><g fill="#ff1616" fill-opacity="1"><g transform="translate(1139.107691, 333.705663)"><g><path d="M 41.796875 -16.65625 C 41.796875 -13.25 40.929688 -10.226562 39.203125 -7.59375 C 37.472656 -4.957031 34.984375 -2.90625 31.734375 -1.4375 C 28.484375 0.0195312 24.671875 0.75 20.296875 0.75 C 16.640625 0.75 13.570312 0.492188 11.09375 -0.015625 C 8.625 -0.523438 6.050781 -1.421875 3.375 -2.703125 L 3.375 -15.90625 C 6.195312 -14.457031 9.132812 -13.328125 12.1875 -12.515625 C 15.238281 -11.703125 18.039062 -11.296875 20.59375 -11.296875 C 22.789062 -11.296875 24.398438 -11.675781 25.421875 -12.4375 C 26.453125 -13.195312 26.96875 -14.175781 26.96875 -15.375 C 26.96875 -16.125 26.757812 -16.78125 26.34375 -17.34375 C 25.9375 -17.90625 25.273438 -18.472656 24.359375 -19.046875 C 23.453125 -19.628906 21.019531 -20.804688 17.0625 -22.578125 C 13.488281 -24.203125 10.804688 -25.773438 9.015625 -27.296875 C 7.234375 -28.828125 5.910156 -30.582031 5.046875 -32.5625 C 4.179688 -34.539062 3.75 -36.878906 3.75 -39.578125 C 3.75 -44.628906 5.585938 -48.566406 9.265625 -51.390625 C 12.941406 -54.222656 17.992188 -55.640625 24.421875 -55.640625 C 30.097656 -55.640625 35.890625 -54.320312 41.796875 -51.6875 L 37.25 -40.25 C 32.125 -42.601562 27.695312 -43.78125 23.96875 -43.78125 C 22.039062 -43.78125 20.640625 -43.441406 19.765625 -42.765625 C 18.890625 -42.085938 18.453125 -41.25 18.453125 -40.25 C 18.453125 -39.175781 19.007812 -38.210938 20.125 -37.359375 C 21.238281 -36.515625 24.257812 -34.96875 29.1875 -32.71875 C 33.914062 -30.582031 37.195312 -28.296875 39.03125 -25.859375 C 40.875 -23.421875 41.796875 -20.351562 41.796875 -16.65625 Z M 41.796875 -16.65625 "/></g></g></g><g fill="#ff1616" fill-opacity="1"><g transform="translate(1183.45304, 333.705663)"><g><path d="M 30.125 0 L 15.3125 0 L 15.3125 -42.734375 L 1.90625 -42.734375 L 1.90625 -54.84375 L 43.484375 -54.84375 L 43.484375 -42.734375 L 30.125 -42.734375 Z M 30.125 0 "/></g></g></g><g fill="#ff1616" fill-opacity="1"><g transform="translate(1228.848848, 333.705663)"><g><path d="M 38.484375 0 L 5.921875 0 L 5.921875 -54.84375 L 38.484375 -54.84375 L 38.484375 -42.953125 L 20.75 -42.953125 L 20.75 -34.328125 L 37.171875 -34.328125 L 37.171875 -22.4375 L 20.75 -22.4375 L 20.75 -12.078125 L 38.484375 -12.078125 Z M 38.484375 0 "/></g></g></g><g fill="#ff1616" fill-opacity="1"><g transform="translate(1271.018235, 333.705663)"><g><path d="M 20.75 -19.953125 L 20.75 0 L 5.921875 0 L 5.921875 -54.84375 L 23.890625 -54.84375 C 38.796875 -54.84375 46.25 -49.441406 46.25 -38.640625 C 46.25 -32.285156 43.148438 -27.367188 36.953125 -23.890625 L 52.9375 0 L 36.125 0 L 24.5 -19.953125 Z M 20.75 -31.09375 L 23.515625 -31.09375 C 28.691406 -31.09375 31.28125 -33.382812 31.28125 -37.96875 C 31.28125 -41.738281 28.742188 -43.625 23.671875 -43.625 L 20.75 -43.625 Z M 20.75 -31.09375 "/></g></g></g><g fill="#ff1616" fill-opacity="1"><g transform="translate(1323.017075, 333.705663)"><g><path d="M 57.25 -27.5 C 57.25 -18.269531 54.984375 -11.253906 50.453125 -6.453125 C 45.929688 -1.648438 39.304688 0.75 30.578125 0.75 C 21.972656 0.75 15.375 -1.660156 10.78125 -6.484375 C 6.195312 -11.316406 3.90625 -18.347656 3.90625 -27.578125 C 3.90625 -36.703125 6.1875 -43.671875 10.75 -48.484375 C 15.3125 -53.296875 21.945312 -55.703125 30.65625 -55.703125 C 39.375 -55.703125 45.984375 -53.3125 50.484375 -48.53125 C 54.992188 -43.757812 57.25 -36.75 57.25 -27.5 Z M 19.5 -27.5 C 19.5 -16.894531 23.191406 -11.59375 30.578125 -11.59375 C 34.328125 -11.59375 37.109375 -12.878906 38.921875 -15.453125 C 40.734375 -18.023438 41.640625 -22.039062 41.640625 -27.5 C 41.640625 -32.976562 40.71875 -37.019531 38.875 -39.625 C 37.039062 -42.238281 34.300781 -43.546875 30.65625 -43.546875 C 23.21875 -43.546875 19.5 -38.195312 19.5 -27.5 Z M 19.5 -27.5 "/></g></g></g><g fill="#ff1616" fill-opacity="1"><g transform="translate(1384.245188, 333.705663)"><g><path d="M 5.921875 0 L 5.921875 -54.84375 L 20.75 -54.84375 L 20.75 -11.96875 L 41.859375 -11.96875 L 41.859375 0 Z M 5.921875 0 "/></g></g></g><g fill="#ffffff" fill-opacity="1"><g transform="translate(259.553433, 430.325023)"><g><path d="M 38.484375 0 L 5.921875 0 L 5.921875 -54.84375 L 38.484375 -54.84375 L 38.484375 -42.953125 L 20.75 -42.953125 L 20.75 -34.328125 L 37.171875 -34.328125 L 37.171875 -22.4375 L 20.75 -22.4375 L 20.75 -12.078125 L 38.484375 -12.078125 Z M 38.484375 0 "/></g></g></g><g fill="#ffffff" fill-opacity="1"><g transform="translate(301.722795, 430.325023)"><g><path d="M 29.828125 0 L 18.609375 -39.5 L 18.265625 -39.5 C 18.796875 -32.769531 19.0625 -27.546875 19.0625 -23.828125 L 19.0625 0 L 5.921875 0 L 5.921875 -54.84375 L 25.65625 -54.84375 L 37.09375 -15.90625 L 37.40625 -15.90625 L 48.625 -54.84375 L 68.390625 -54.84375 L 68.390625 0 L 54.765625 0 L 54.765625 -24.046875 C 54.765625 -25.296875 54.78125 -26.679688 54.8125 -28.203125 C 54.851562 -29.734375 55.023438 -33.472656 55.328125 -39.421875 L 55 -39.421875 L 43.921875 0 Z M 29.828125 0 "/></g></g></g><g fill="#ffffff" fill-opacity="1"><g transform="translate(376.006904, 430.325023)"><g/></g></g><g fill="#ffffff" fill-opacity="1"><g transform="translate(395.966068, 430.325023)"><g><path d="M 29.828125 0 L 18.609375 -39.5 L 18.265625 -39.5 C 18.796875 -32.769531 19.0625 -27.546875 19.0625 -23.828125 L 19.0625 0 L 5.921875 0 L 5.921875 -54.84375 L 25.65625 -54.84375 L 37.09375 -15.90625 L 37.40625 -15.90625 L 48.625 -54.84375 L 68.390625 -54.84375 L 68.390625 0 L 54.765625 0 L 54.765625 -24.046875 C 54.765625 -25.296875 54.78125 -26.679688 54.8125 -28.203125 C 54.851562 -29.734375 55.023438 -33.472656 55.328125 -39.421875 L 55 -39.421875 L 43.921875 0 Z M 29.828125 0 "/></g></g></g><g fill="#ffffff" fill-opacity="1"><g transform="translate(470.250177, 430.325023)"><g><path d="M 38.484375 0 L 5.921875 0 L 5.921875 -54.84375 L 38.484375 -54.84375 L 38.484375 -42.953125 L 20.75 -42.953125 L 20.75 -34.328125 L 37.171875 -34.328125 L 37.171875 -22.4375 L 20.75 -22.4375 L 20.75 -12.078125 L 38.484375 -12.078125 Z M 38.484375 0 "/></g></g></g><g fill="#ffffff" fill-opacity="1"><g transform="translate(512.419539, 430.325023)"><g><path d="M 58.140625 0 L 38.71875 0 L 18.6875 -38.640625 L 18.34375 -38.640625 C 18.820312 -32.554688 19.0625 -27.914062 19.0625 -24.71875 L 19.0625 0 L 5.921875 0 L 5.921875 -54.84375 L 25.28125 -54.84375 L 45.234375 -16.734375 L 45.46875 -16.734375 C 45.113281 -22.253906 44.9375 -26.691406 44.9375 -30.046875 L 44.9375 -54.84375 L 58.140625 -54.84375 Z M 58.140625 0 "/></g></g></g><g fill="#ffffff" fill-opacity="1"><g transform="translate(576.498962, 430.325023)"><g><path d="M 57.25 -27.5 C 57.25 -18.269531 54.984375 -11.253906 50.453125 -6.453125 C 45.929688 -1.648438 39.304688 0.75 30.578125 0.75 C 21.972656 0.75 15.375 -1.660156 10.78125 -6.484375 C 6.195312 -11.316406 3.90625 -18.347656 3.90625 -27.578125 C 3.90625 -36.703125 6.1875 -43.671875 10.75 -48.484375 C 15.3125 -53.296875 21.945312 -55.703125 30.65625 -55.703125 C 39.375 -55.703125 45.984375 -53.3125 50.484375 -48.53125 C 54.992188 -43.757812 57.25 -36.75 57.25 -27.5 Z M 19.5 -27.5 C 19.5 -16.894531 23.191406 -11.59375 30.578125 -11.59375 C 34.328125 -11.59375 37.109375 -12.878906 38.921875 -15.453125 C 40.734375 -18.023438 41.640625 -22.039062 41.640625 -27.5 C 41.640625 -32.976562 40.71875 -37.019531 38.875 -39.625 C 37.039062 -42.238281 34.300781 -43.546875 30.65625 -43.546875 C 23.21875 -43.546875 19.5 -38.195312 19.5 -27.5 Z M 19.5 -27.5 "/></g></g></g><g fill="#ffffff" fill-opacity="1"><g transform="translate(637.727076, 430.325023)"><g><path d="M 41.796875 -16.65625 C 41.796875 -13.25 40.929688 -10.226562 39.203125 -7.59375 C 37.472656 -4.957031 34.984375 -2.90625 31.734375 -1.4375 C 28.484375 0.0195312 24.671875 0.75 20.296875 0.75 C 16.640625 0.75 13.570312 0.492188 11.09375 -0.015625 C 8.625 -0.523438 6.050781 -1.421875 3.375 -2.703125 L 3.375 -15.90625 C 6.195312 -14.457031 9.132812 -13.328125 12.1875 -12.515625 C 15.238281 -11.703125 18.039062 -11.296875 20.59375 -11.296875 C 22.789062 -11.296875 24.398438 -11.675781 25.421875 -12.4375 C 26.453125 -13.195312 26.96875 -14.175781 26.96875 -15.375 C 26.96875 -16.125 26.757812 -16.78125 26.34375 -17.34375 C 25.9375 -17.90625 25.273438 -18.472656 24.359375 -19.046875 C 23.453125 -19.628906 21.019531 -20.804688 17.0625 -22.578125 C 13.488281 -24.203125 10.804688 -25.773438 9.015625 -27.296875 C 7.234375 -28.828125 5.910156 -30.582031 5.046875 -32.5625 C 4.179688 -34.539062 3.75 -36.878906 3.75 -39.578125 C 3.75 -44.628906 5.585938 -48.566406 9.265625 -51.390625 C 12.941406 -54.222656 17.992188 -55.640625 24.421875 -55.640625 C 30.097656 -55.640625 35.890625 -54.320312 41.796875 -51.6875 L 37.25 -40.25 C 32.125 -42.601562 27.695312 -43.78125 23.96875 -43.78125 C 22.039062 -43.78125 20.640625 -43.441406 19.765625 -42.765625 C 18.890625 -42.085938 18.453125 -41.25 18.453125 -40.25 C 18.453125 -39.175781 19.007812 -38.210938 20.125 -37.359375 C 21.238281 -36.515625 24.257812 -34.96875 29.1875 -32.71875 C 33.914062 -30.582031 37.195312 -28.296875 39.03125 -25.859375 C 40.875 -23.421875 41.796875 -20.351562 41.796875 -16.65625 Z M 41.796875 -16.65625 "/></g></g></g><g fill="#ffffff" fill-opacity="1"><g transform="translate(682.072425, 430.325023)"><g/></g></g><g fill="#ffffff" fill-opacity="1"><g transform="translate(702.031613, 430.325023)"><g><path d="M 52.484375 -28.578125 C 52.484375 -19.429688 49.960938 -12.378906 44.921875 -7.421875 C 39.878906 -2.472656 32.796875 0 23.671875 0 L 5.921875 0 L 5.921875 -54.84375 L 24.90625 -54.84375 C 33.707031 -54.84375 40.503906 -52.59375 45.296875 -48.09375 C 50.085938 -43.59375 52.484375 -37.085938 52.484375 -28.578125 Z M 37.09375 -28.0625 C 37.09375 -33.082031 36.097656 -36.804688 34.109375 -39.234375 C 32.128906 -41.660156 29.113281 -42.875 25.0625 -42.875 L 20.75 -42.875 L 20.75 -12.15625 L 24.046875 -12.15625 C 28.546875 -12.15625 31.84375 -13.460938 33.9375 -16.078125 C 36.039062 -18.691406 37.09375 -22.6875 37.09375 -28.0625 Z M 37.09375 -28.0625 "/></g></g></g><g fill="#ffffff" fill-opacity="1"><g transform="translate(758.419998, 430.325023)"><g><path d="M 38.484375 0 L 5.921875 0 L 5.921875 -54.84375 L 38.484375 -54.84375 L 38.484375 -42.953125 L 20.75 -42.953125 L 20.75 -34.328125 L 37.171875 -34.328125 L 37.171875 -22.4375 L 20.75 -22.4375 L 20.75 -12.078125 L 38.484375 -12.078125 Z M 38.484375 0 "/></g></g></g><g fill="#ffffff" fill-opacity="1"><g transform="translate(800.589337, 430.325023)"><g/></g></g><g fill="#ffffff" fill-opacity="1"><g transform="translate(820.548525, 430.325023)"><g><path d="M 35.34375 0 L 20.296875 0 L 20.296875 -29.03125 C 20.296875 -32.5625 20.367188 -35.789062 20.515625 -38.71875 C 19.585938 -37.59375 18.4375 -36.414062 17.0625 -35.1875 L 10.84375 -30.046875 L 3.15625 -39.5 L 21.984375 -54.84375 L 35.34375 -54.84375 Z M 35.34375 0 "/></g></g></g><g fill="#ffffff" fill-opacity="1"><g transform="translate(865.569197, 430.325023)"><g><path d="M 43.859375 -10.609375 L 37.8125 -10.609375 L 37.8125 0 L 23.1875 0 L 23.1875 -10.609375 L 1.3125 -10.609375 L 1.3125 -21.5 L 24.125 -54.84375 L 37.8125 -54.84375 L 37.8125 -21.6875 L 43.859375 -21.6875 Z M 23.1875 -21.6875 L 23.1875 -28.0625 C 23.1875 -29.257812 23.226562 -30.875 23.3125 -32.90625 C 23.40625 -34.945312 23.472656 -36.019531 23.515625 -36.125 L 23.109375 -36.125 C 22.253906 -34.195312 21.289062 -32.394531 20.21875 -30.71875 L 14.140625 -21.6875 Z M 23.1875 -21.6875 "/></g></g></g><g fill="#ffffff" fill-opacity="1"><g transform="translate(910.589869, 430.325023)"><g/></g></g><g fill="#ffffff" fill-opacity="1"><g transform="translate(930.549057, 430.325023)"><g><path d="M 52.484375 -28.578125 C 52.484375 -19.429688 49.960938 -12.378906 44.921875 -7.421875 C 39.878906 -2.472656 32.796875 0 23.671875 0 L 5.921875 0 L 5.921875 -54.84375 L 24.90625 -54.84375 C 33.707031 -54.84375 40.503906 -52.59375 45.296875 -48.09375 C 50.085938 -43.59375 52.484375 -37.085938 52.484375 -28.578125 Z M 37.09375 -28.0625 C 37.09375 -33.082031 36.097656 -36.804688 34.109375 -39.234375 C 32.128906 -41.660156 29.113281 -42.875 25.0625 -42.875 L 20.75 -42.875 L 20.75 -12.15625 L 24.046875 -12.15625 C 28.546875 -12.15625 31.84375 -13.460938 33.9375 -16.078125 C 36.039062 -18.691406 37.09375 -22.6875 37.09375 -28.0625 Z M 37.09375 -28.0625 "/></g></g></g><g fill="#ffffff" fill-opacity="1"><g transform="translate(986.937442, 430.325023)"><g><path d="M 5.921875 0 L 5.921875 -54.84375 L 20.8125 -54.84375 L 20.8125 0 Z M 5.921875 0 "/></g></g></g><g fill="#ffffff" fill-opacity="1"><g transform="translate(1013.68723, 430.325023)"><g><path d="M 39.578125 0 L 36.875 -10.28125 L 19.0625 -10.28125 L 16.28125 0 L 0 0 L 17.890625 -55.0625 L 37.65625 -55.0625 L 55.78125 0 Z M 33.796875 -22.4375 L 31.4375 -31.4375 C 30.882812 -33.4375 30.210938 -36.023438 29.421875 -39.203125 C 28.640625 -42.378906 28.125 -44.65625 27.875 -46.03125 C 27.644531 -44.75 27.195312 -42.644531 26.53125 -39.71875 C 25.875 -36.800781 24.410156 -31.039062 22.140625 -22.4375 Z M 33.796875 -22.4375 "/></g></g></g><g fill="#ffffff" fill-opacity="1"><g transform="translate(1069.47534, 430.325023)"><g><path d="M 41.796875 -16.65625 C 41.796875 -13.25 40.929688 -10.226562 39.203125 -7.59375 C 37.472656 -4.957031 34.984375 -2.90625 31.734375 -1.4375 C 28.484375 0.0195312 24.671875 0.75 20.296875 0.75 C 16.640625 0.75 13.570312 0.492188 11.09375 -0.015625 C 8.625 -0.523438 6.050781 -1.421875 3.375 -2.703125 L 3.375 -15.90625 C 6.195312 -14.457031 9.132812 -13.328125 12.1875 -12.515625 C 15.238281 -11.703125 18.039062 -11.296875 20.59375 -11.296875 C 22.789062 -11.296875 24.398438 -11.675781 25.421875 -12.4375 C 26.453125 -13.195312 26.96875 -14.175781 26.96875 -15.375 C 26.96875 -16.125 26.757812 -16.78125 26.34375 -17.34375 C 25.9375 -17.90625 25.273438 -18.472656 24.359375 -19.046875 C 23.453125 -19.628906 21.019531 -20.804688 17.0625 -22.578125 C 13.488281 -24.203125 10.804688 -25.773438 9.015625 -27.296875 C 7.234375 -28.828125 5.910156 -30.582031 5.046875 -32.5625 C 4.179688 -34.539062 3.75 -36.878906 3.75 -39.578125 C 3.75 -44.628906 5.585938 -48.566406 9.265625 -51.390625 C 12.941406 -54.222656 17.992188 -55.640625 24.421875 -55.640625 C 30.097656 -55.640625 35.890625 -54.320312 41.796875 -51.6875 L 37.25 -40.25 C 32.125 -42.601562 27.695312 -43.78125 23.96875 -43.78125 C 22.039062 -43.78125 20.640625 -43.441406 19.765625 -42.765625 C 18.890625 -42.085938 18.453125 -41.25 18.453125 -40.25 C 18.453125 -39.175781 19.007812 -38.210938 20.125 -37.359375 C 21.238281 -36.515625 24.257812 -34.96875 29.1875 -32.71875 C 33.914062 -30.582031 37.195312 -28.296875 39.03125 -25.859375 C 40.875 -23.421875 41.796875 -20.351562 41.796875 -16.65625 Z M 41.796875 -16.65625 "/></g></g></g><g fill="#ffffff" fill-opacity="1"><g transform="translate(1113.820689, 430.325023)"><g><path d="M 3.21875 -6.234375 C 3.21875 -8.523438 3.898438 -10.296875 5.265625 -11.546875 C 6.628906 -12.804688 8.613281 -13.4375 11.21875 -13.4375 C 13.695312 -13.4375 15.597656 -12.804688 16.921875 -11.546875 C 18.242188 -10.296875 18.90625 -8.523438 18.90625 -6.234375 C 18.90625 -3.972656 18.222656 -2.210938 16.859375 -0.953125 C 15.492188 0.304688 13.613281 0.9375 11.21875 0.9375 C 8.738281 0.9375 6.785156 0.3125 5.359375 -0.9375 C 3.929688 -2.1875 3.21875 -3.953125 3.21875 -6.234375 Z M 3.21875 -6.234375 "/></g></g></g><g fill="#ffffff" fill-opacity="1"><g transform="translate(1136.030887, 430.325023)"><g><path d="M 3.21875 -6.234375 C 3.21875 -8.523438 3.898438 -10.296875 5.265625 -11.546875 C 6.628906 -12.804688 8.613281 -13.4375 11.21875 -13.4375 C 13.695312 -13.4375 15.597656 -12.804688 16.921875 -11.546875 C 18.242188 -10.296875 18.90625 -8.523438 18.90625 -6.234375 C 18.90625 -3.972656 18.222656 -2.210938 16.859375 -0.953125 C 15.492188 0.304688 13.613281 0.9375 11.21875 0.9375 C 8.738281 0.9375 6.785156 0.3125 5.359375 -0.9375 C 3.929688 -2.1875 3.21875 -3.953125 3.21875 -6.234375 Z M 3.21875 -6.234375 "/></g></g></g><g fill="#ffffff" fill-opacity="1"><g transform="translate(1158.241085, 430.325023)"><g><path d="M 3.21875 -6.234375 C 3.21875 -8.523438 3.898438 -10.296875 5.265625 -11.546875 C 6.628906 -12.804688 8.613281 -13.4375 11.21875 -13.4375 C 13.695312 -13.4375 15.597656 -12.804688 16.921875 -11.546875 C 18.242188 -10.296875 18.90625 -8.523438 18.90625 -6.234375 C 18.90625 -3.972656 18.222656 -2.210938 16.859375 -0.953125 C 15.492188 0.304688 13.613281 0.9375 11.21875 0.9375 C 8.738281 0.9375 6.785156 0.3125 5.359375 -0.9375 C 3.929688 -2.1875 3.21875 -3.953125 3.21875 -6.234375 Z M 3.21875 -6.234375 "/></g></g></g></svg>